<?xml version="1.0" encoding="UTF-8" standalone="no"?>
<svg
   xmlns:dc="http://purl.org/dc/elements/1.1/"
   xmlns:cc="http://creativecommons.org/ns#"
   xmlns:rdf="http://www.w3.org/1999/02/22-rdf-syntax-ns#"
   xmlns:svg="http://www.w3.org/2000/svg"
   xmlns="http://www.w3.org/2000/svg"
   xmlns:xlink="http://www.w3.org/1999/xlink"
   xmlns:sodipodi="http://sodipodi.sourceforge.net/DTD/sodipodi-0.dtd"
   xmlns:inkscape="http://www.inkscape.org/namespaces/inkscape"
   version="1.1"
   id="Layer_1"
   x="0px"
   y="0px"
   viewBox="0 0 64.000001 64.000002"
   xml:space="preserve"
   sodipodi:docname="table-cast-64.svg"
   width="64"
   height="64"
   inkscape:version="0.92.3 (2405546, 2018-03-11)"><metadata
     id="metadata5639"><rdf:RDF><cc:Work
         rdf:about=""><dc:format>image/svg+xml</dc:format><dc:type
           rdf:resource="http://purl.org/dc/dcmitype/StillImage" /><dc:title></dc:title></cc:Work></rdf:RDF></metadata><defs
     id="defs5637"><linearGradient
       inkscape:collect="always"
       id="linearGradient8511"><stop
         style="stop-color:#000000;stop-opacity:1;"
         offset="0"
         id="stop8507" /><stop
         style="stop-color:#000000;stop-opacity:0;"
         offset="1"
         id="stop8509" /></linearGradient><linearGradient
       inkscape:collect="always"
       xlink:href="#linearGradient8511"
       id="linearGradient8513"
       x1="0"
       y1="51.259998"
       x2="122.29023"
       y2="1.1295328"
       gradientUnits="userSpaceOnUse" /><linearGradient
       inkscape:collect="always"
       xlink:href="#linearGradient8511"
       id="linearGradient1436"
       gradientUnits="userSpaceOnUse"
       x1="0"
       y1="51.259998"
       x2="122.29023"
       y2="1.1295328" /></defs><sodipodi:namedview
     pagecolor="#ffffff"
     bordercolor="#666666"
     borderopacity="1"
     objecttolerance="10"
     gridtolerance="10"
     guidetolerance="10"
     inkscape:pageopacity="0"
     inkscape:pageshadow="2"
     inkscape:window-width="971"
     inkscape:window-height="1008"
     id="namedview5635"
     showgrid="false"
     inkscape:zoom="5.6568543"
     inkscape:cx="33.590113"
     inkscape:cy="16.641537"
     inkscape:window-x="940"
     inkscape:window-y="0"
     inkscape:window-maximized="0"
     inkscape:current-layer="g1508" /><style
     type="text/css"
     id="style5628">.st0{fill-rule:evenodd;clip-rule:evenodd;}</style><g
     id="g5632"
     transform="matrix(0.52083333,0,0,0.52083333,0.35355339,6.7150807)"
     style="fill:url(#linearGradient8513);fill-opacity:1"><path
       class="st0"
       d="m 5.42,0 h 112.04 c 2.98,0 5.42,2.44 5.42,5.42 V 97.1 c 0,2.98 -2.44,5.42 -5.42,5.42 H 5.42 C 2.44,102.52 0,100.08 0,97.1 V 5.42 C 0,2.44 2.44,0 5.42,0 Z M 8.48,23.58 H 38.1 c 0.82,0 1.48,0.67 1.48,1.48 v 9.76 c 0,0.81 -0.67,1.48 -1.48,1.48 H 8.48 C 7.67,36.3 7,35.63 7,34.82 V 25.06 C 6.99,24.25 7.66,23.58 8.48,23.58 Z m 76.3,58.77 h 29.63 c 0.82,0 1.48,0.67 1.48,1.48 v 9.76 c 0,0.81 -0.67,1.48 -1.48,1.48 H 84.78 c -0.81,0 -1.48,-0.67 -1.48,-1.48 v -9.76 c -0.01,-0.81 0.66,-1.48 1.48,-1.48 z m -37.98,0 h 29.28 c 0.82,0 1.48,0.67 1.48,1.48 v 9.76 c 0,0.81 -0.67,1.48 -1.48,1.48 H 46.8 c -0.81,0 -1.48,-0.67 -1.48,-1.48 v -9.76 c -0.01,-0.81 0.66,-1.48 1.48,-1.48 z m -38.32,0 H 38.1 c 0.82,0 1.48,0.67 1.48,1.48 v 9.76 c 0,0.81 -0.67,1.48 -1.48,1.48 H 8.48 C 7.67,95.07 7,94.4 7,93.59 V 83.83 C 6.99,83.02 7.66,82.35 8.48,82.35 Z m 76.3,-19.59 h 29.63 c 0.82,0 1.48,0.67 1.48,1.48 V 74 c 0,0.81 -0.67,1.48 -1.48,1.48 H 84.78 C 83.97,75.48 83.3,74.81 83.3,74 v -9.76 c -0.01,-0.81 0.66,-1.48 1.48,-1.48 z m -37.98,0 h 29.28 c 0.82,0 1.48,0.67 1.48,1.48 V 74 c 0,0.81 -0.67,1.48 -1.48,1.48 H 46.8 c -0.81,0 -1.48,-0.67 -1.48,-1.48 v -9.76 c -0.01,-0.81 0.66,-1.48 1.48,-1.48 z m -38.32,0 H 38.1 c 0.82,0 1.48,0.67 1.48,1.48 V 74 c 0,0.81 -0.67,1.48 -1.48,1.48 H 8.48 C 7.67,75.48 7,74.81 7,74 V 64.24 C 6.99,63.43 7.66,62.76 8.48,62.76 Z m 76.3,-19.59 h 29.63 c 0.82,0 1.48,0.67 1.48,1.48 v 9.76 c 0,0.81 -0.67,1.48 -1.48,1.48 H 84.78 c -0.81,0 -1.48,-0.67 -1.48,-1.48 v -9.76 c -0.01,-0.81 0.66,-1.48 1.48,-1.48 z m -37.98,0 h 29.28 c 0.82,0 1.48,0.67 1.48,1.48 v 9.76 c 0,0.81 -0.67,1.48 -1.48,1.48 H 46.8 c -0.81,0 -1.48,-0.67 -1.48,-1.48 v -9.76 c -0.01,-0.81 0.66,-1.48 1.48,-1.48 z m -38.32,0 H 38.1 c 0.82,0 1.48,0.67 1.48,1.48 v 9.76 c 0,0.81 -0.67,1.48 -1.48,1.48 H 8.48 C 7.67,55.89 7,55.22 7,54.41 V 44.65 C 6.99,43.84 7.66,43.17 8.48,43.17 Z m 76.3,-19.59 h 29.63 c 0.82,0 1.48,0.67 1.48,1.48 v 9.76 c 0,0.81 -0.67,1.48 -1.48,1.48 H 84.78 c -0.81,0 -1.48,-0.67 -1.48,-1.48 v -9.76 c -0.01,-0.81 0.66,-1.48 1.48,-1.48 z m -37.98,0 h 29.28 c 0.82,0 1.48,0.67 1.48,1.48 v 9.76 c 0,0.81 -0.67,1.48 -1.48,1.48 H 46.8 c -0.81,0 -1.48,-0.67 -1.48,-1.48 v -9.76 c -0.01,-0.81 0.66,-1.48 1.48,-1.48 z"
       id="path5630"
       inkscape:connector-curvature="0"
       style="clip-rule:evenodd;fill:url(#linearGradient1436);fill-opacity:1;fill-rule:evenodd" /></g><rect
     style="opacity:1;fill:#000000;fill-opacity:0.5;fill-rule:nonzero;stroke:none;stroke-width:0.18166205;stroke-linejoin:bevel;stroke-miterlimit:4;stroke-dasharray:none;stroke-opacity:1"
     id="rect1434"
     width="56.754627"
     height="37.181461"
     x="3.9873636"
     y="18.983784" /><text
     xml:space="preserve"
     style="font-style:normal;font-weight:normal;font-size:40px;line-height:1.25;font-family:sans-serif;letter-spacing:0px;word-spacing:0px;fill:#000000;fill-opacity:1;stroke:none"
     x="12.727922"
     y="36.77639"
     id="text1440"><tspan
       sodipodi:role="line"
       id="tspan1438"
       x="12.727922"
       y="73.2696"></tspan></text>
<g
     transform="matrix(1.6457804,0,0,1.3658604,-6.1137298,-8.8876986)"
     id="g1508"><text
       id="text1444-4"
       y="42.889332"
       x="5.9666181"
       style="font-style:normal;font-weight:normal;font-size:20px;line-height:1.25;font-family:sans-serif;letter-spacing:0px;word-spacing:0px;fill:#373737;fill-opacity:1;stroke:none;stroke-width:0.5;stroke-opacity:1"
       xml:space="preserve"><tspan
         style="fill:#373737;fill-opacity:1;stroke:none;stroke-width:0.5;stroke-opacity:1"
         y="42.889332"
         x="5.9666181"
         id="tspan1442-4"
         sodipodi:role="line">1</tspan></text>
<text
       id="text1444"
       y="42.079689"
       x="4.8361645"
       style="font-style:normal;font-weight:normal;font-size:20px;line-height:1.25;font-family:sans-serif;letter-spacing:0px;word-spacing:0px;fill:#ffffff;fill-opacity:1;stroke:none;stroke-width:0.5;"
       xml:space="preserve"><tspan
         style="fill:#ffffff;fill-opacity:1;stroke-width:0.5;"
         y="42.079689"
         x="4.8361645"
         id="tspan1442"
         sodipodi:role="line">1</tspan></text>
</g><g
     transform="matrix(2.0556226,0,0,2.3026892,-20.445704,-50.620987)"
     id="g1514"><text
       id="text1444-4-5"
       y="42.859734"
       x="21.611364"
       style="font-style:normal;font-weight:normal;font-size:10px;line-height:1.25;font-family:sans-serif;letter-spacing:0px;word-spacing:0px;fill:#373737;fill-opacity:1;stroke:none;stroke-width:0.25;stroke-opacity:1"
       xml:space="preserve"><tspan
         style="fill:#373737;fill-opacity:1;stroke:none;stroke-width:0.25;stroke-opacity:1"
         y="42.859734"
         x="21.611364"
         id="tspan1442-4-0"
         sodipodi:role="line">abc</tspan></text>
<text
       id="text1444-9"
       y="42.45491"
       x="21.046137"
       style="font-style:normal;font-weight:normal;font-size:10px;line-height:1.25;font-family:sans-serif;letter-spacing:0px;word-spacing:0px;fill:#ffffff;fill-opacity:1;stroke:none;stroke-width:0.25"
       xml:space="preserve"><tspan
         style="fill:#ffffff;fill-opacity:1;stroke-width:0.25"
         y="42.45491"
         x="21.046137"
         id="tspan1442-2"
         sodipodi:role="line">abc</tspan></text>
</g></svg>