<?xml version="1.0" encoding="UTF-8" standalone="no"?>
<svg
   xmlns:dc="http://purl.org/dc/elements/1.1/"
   xmlns:cc="http://creativecommons.org/ns#"
   xmlns:rdf="http://www.w3.org/1999/02/22-rdf-syntax-ns#"
   xmlns:svg="http://www.w3.org/2000/svg"
   xmlns="http://www.w3.org/2000/svg"
   xmlns:xlink="http://www.w3.org/1999/xlink"
   xmlns:sodipodi="http://sodipodi.sourceforge.net/DTD/sodipodi-0.dtd"
   xmlns:inkscape="http://www.inkscape.org/namespaces/inkscape"
   version="1.1"
   id="Layer_1"
   x="0px"
   y="0px"
   viewBox="0 0 64.000001 53.395834"
   xml:space="preserve"
   sodipodi:docname="table-transpose-64.svg"
   width="64"
   height="53.395832"
   inkscape:version="0.92.3 (2405546, 2018-03-11)"><metadata
     id="metadata5639"><rdf:RDF><cc:Work
         rdf:about=""><dc:format>image/svg+xml</dc:format><dc:type
           rdf:resource="http://purl.org/dc/dcmitype/StillImage" /><dc:title /></cc:Work></rdf:RDF></metadata><defs
     id="defs5637"><linearGradient
       inkscape:collect="always"
       id="linearGradient8511"><stop
         style="stop-color:#000000;stop-opacity:1;"
         offset="0"
         id="stop8507" /><stop
         style="stop-color:#000000;stop-opacity:0;"
         offset="1"
         id="stop8509" /></linearGradient><linearGradient
       inkscape:collect="always"
       xlink:href="#linearGradient8511"
       id="linearGradient8513"
       x1="-3.0294418"
       y1="73.429878"
       x2="105.73303"
       y2="-44.563419"
       gradientUnits="userSpaceOnUse" /><linearGradient
       inkscape:collect="always"
       xlink:href="#linearGradient8511"
       id="linearGradient2141"
       gradientUnits="userSpaceOnUse"
       x1="0"
       y1="51.26"
       x2="122.29023"
       y2="1.1295328"
       gradientTransform="rotate(7.4597408,61.44,51.26)" /><linearGradient
       gradientTransform="matrix(0.75860868,-0.4842653,0.48426529,0.75860868,8.5785301,20.033813)"
       inkscape:collect="always"
       xlink:href="#linearGradient8511"
       id="linearGradient10360-0"
       x1="-5.8301377"
       y1="2.9909129"
       x2="62.021725"
       y2="13.622522"
       gradientUnits="userSpaceOnUse" /><linearGradient
       gradientTransform="matrix(-0.77005412,0.46585047,-0.46585046,-0.77005412,56.116532,36.14321)"
       inkscape:collect="always"
       xlink:href="#linearGradient8511"
       id="linearGradient10360-0-1"
       x1="42.977985"
       y1="38.060894"
       x2="-26.38353"
       y2="30.17181"
       gradientUnits="userSpaceOnUse" /></defs><sodipodi:namedview
     pagecolor="#ffffff"
     bordercolor="#666666"
     borderopacity="1"
     objecttolerance="10"
     gridtolerance="10"
     guidetolerance="10"
     inkscape:pageopacity="0"
     inkscape:pageshadow="2"
     inkscape:window-width="1920"
     inkscape:window-height="1017"
     id="namedview5635"
     showgrid="false"
     inkscape:zoom="6.5110108"
     inkscape:cx="27.285318"
     inkscape:cy="24.231364"
     inkscape:window-x="-8"
     inkscape:window-y="-8"
     inkscape:window-maximized="1"
     inkscape:current-layer="Layer_1" /><style
     type="text/css"
     id="style5628">.st0{fill-rule:evenodd;clip-rule:evenodd;}</style><g
     id="g5632"
     transform="matrix(0.36951907,0.14902382,-0.14902382,0.36951907,17.03249,-1.0806201)"
     style="fill:url(#linearGradient8513);fill-opacity:1"><path
       class="st0"
       d="M 12.549196,-6.8392019 123.64093,7.7068972 c 2.95477,0.3868919 5.05734,3.1230248 4.67045,6.0778028 l -11.90277,90.90405 c -0.38689,2.95478 -3.12303,5.05734 -6.07781,4.67045 L -0.7609263,94.813103 C -3.7157046,94.426211 -5.8182692,91.690078 -5.4313772,88.7353 l 11.90277,-90.9040509 c 0.386892,-2.9547783 3.1230246,-5.0573429 6.0778032,-4.670451 z m -0.02728,23.7777049 29.369306,3.84555 c 0.81306,0.106461 1.380488,0.856477 1.275326,1.659622 l -1.267136,9.677394 c -0.105162,0.803145 -0.856477,1.380488 -1.659621,1.275327 L 10.870485,29.550845 C 10.067341,29.445683 9.4899975,28.694368 9.5951594,27.891224 l 1.2671356,-9.677395 c 0.09525,-0.804442 0.846562,-1.381786 1.659621,-1.275326 z m 68.024141,68.178582 29.379223,3.846849 c 0.81306,0.10646 1.38049,0.856477 1.27533,1.659621 l -1.26714,9.677395 c -0.10516,0.80314 -0.85648,1.38049 -1.65962,1.27533 L 78.894627,97.729428 c -0.803145,-0.105162 -1.380488,-0.856477 -1.275326,-1.659622 l 1.267136,-9.677394 c 0.09525,-0.804443 0.846562,-1.381787 1.65962,-1.275327 z m -37.65855,-4.930925 29.032184,3.801409 c 0.81306,0.10646 1.380488,0.856477 1.275326,1.659621 l -1.267136,9.677395 c -0.105162,0.803144 -0.856477,1.380488 -1.659621,1.275326 L 41.236077,92.798503 c -0.803144,-0.105162 -1.380488,-0.856477 -1.275326,-1.659622 l 1.267136,-9.677394 c 0.09525,-0.804443 0.846562,-1.381787 1.65962,-1.275327 z M 4.8918362,75.211093 34.261142,79.056644 c 0.81306,0.10646 1.380488,0.856477 1.275326,1.659621 l -1.267136,9.677395 c -0.105162,0.803144 -0.856477,1.380488 -1.659621,1.275326 L 3.2404048,87.823436 C 2.4372603,87.718274 1.8599168,86.966958 1.9650787,86.163814 l 1.2671361,-9.677395 c 0.095247,-0.804442 0.8465616,-1.381786 1.6596214,-1.275326 z m 78.1975828,-9.518204 29.379221,3.846848 c 0.81306,0.10646 1.38049,0.856477 1.27533,1.659622 l -1.26714,9.677394 c -0.10516,0.803145 -0.85648,1.380488 -1.65962,1.275326 L 81.437987,78.305231 c -0.803144,-0.105162 -1.380488,-0.856477 -1.275326,-1.659622 l 1.267136,-9.677394 c 0.09525,-0.804443 0.846562,-1.381786 1.659622,-1.275326 z m -37.65855,-4.930925 29.032183,3.801408 c 0.81306,0.10646 1.380488,0.856477 1.275327,1.659621 l -1.267137,9.677395 c -0.105161,0.803144 -0.856477,1.380488 -1.659621,1.275326 L 43.779437,73.374306 c -0.803144,-0.105162 -1.380488,-0.856477 -1.275326,-1.659622 l 1.267136,-9.677394 c 0.09525,-0.804443 0.846562,-1.381787 1.659622,-1.275326 z M 7.4351964,55.786897 36.804503,59.632447 c 0.813059,0.10646 1.380488,0.856477 1.275326,1.659621 l -1.267136,9.677395 c -0.105162,0.803144 -0.856477,1.380488 -1.659622,1.275326 L 5.783765,68.399239 C 4.9806206,68.294077 4.403277,67.542762 4.5084389,66.739617 L 5.775575,57.062223 C 5.8708215,56.25778 6.6221367,55.680436 7.4351964,55.786897 Z M 85.632779,46.268692 115.012,50.115541 c 0.81306,0.10646 1.38049,0.856477 1.27533,1.659621 l -1.26714,9.677395 c -0.10516,0.803144 -0.85648,1.380488 -1.65962,1.275326 L 83.981347,58.881034 c -0.803144,-0.105162 -1.380488,-0.856477 -1.275326,-1.659621 l 1.267136,-9.677395 c 0.09525,-0.804443 0.846562,-1.381786 1.659622,-1.275326 z m -37.65855,-4.930925 29.032184,3.801408 c 0.813059,0.10646 1.380488,0.856477 1.275326,1.659622 l -1.267136,9.677394 c -0.105162,0.803145 -0.856477,1.380488 -1.659622,1.275326 L 46.322797,53.950109 c -0.803144,-0.105162 -1.380488,-0.856477 -1.275326,-1.659621 l 1.267136,-9.677395 c 0.09525,-0.804443 0.846562,-1.381786 1.659622,-1.275326 z M 9.9785567,36.3627 39.347863,40.20825 c 0.81306,0.10646 1.380488,0.856477 1.275326,1.659622 l -1.267136,9.677394 c -0.105162,0.803145 -0.856477,1.380488 -1.659622,1.275326 L 8.3271252,48.975042 C 7.5239808,48.86988 6.9466372,48.118565 7.0517991,47.315421 L 8.3189352,37.638026 C 8.4141818,36.833583 9.1654969,36.25624 9.9785567,36.3627 Z m 78.1975823,-9.518205 29.379221,3.846849 c 0.81306,0.10646 1.38049,0.856477 1.27533,1.659621 l -1.26714,9.677395 c -0.10516,0.803144 -0.85648,1.380488 -1.65962,1.275326 L 86.524708,39.456837 C 85.721563,39.351675 85.14422,38.60036 85.249381,37.797216 l 1.267137,-9.677395 c 0.09525,-0.804442 0.846561,-1.381786 1.659621,-1.275326 z m -37.65855,-4.930925 29.032184,3.801408 c 0.81306,0.106461 1.380488,0.856477 1.275326,1.659622 l -1.267136,9.677395 c -0.105162,0.803144 -0.856477,1.380488 -1.659622,1.275326 L 48.866158,34.525912 C 48.063013,34.42075 47.48567,33.669435 47.590832,32.866291 l 1.267136,-9.677395 c 0.09525,-0.804442 0.846561,-1.381786 1.659621,-1.275326 z"
       id="path5630"
       inkscape:connector-curvature="0"
       style="clip-rule:evenodd;fill:url(#linearGradient2141);fill-opacity:1;fill-rule:evenodd" /></g><path
     style="fill:url(#linearGradient10360-0);fill-opacity:1;stroke:none;stroke-width:0.36000001;stroke-linecap:butt;stroke-linejoin:miter;stroke-miterlimit:4;stroke-dasharray:none;stroke-opacity:1"
     d="m 53.808176,10.803068 0.274344,-1.2428744 0.419842,4.0029664 -3.454278,-2.065905 1.242873,0.274344 C 49.934912,5.7090636 46.348571,5.9518026 42.858472,5.7012896 l 0.924864,0.87443 -3.649021,-1.698425 3.548153,-1.9001614 -0.87443,0.9248634 c 4.688336,-0.066824 9.070341,0.576144 11.000138,6.9010714 z"
     id="path2773-4"
     inkscape:connector-curvature="0"
     sodipodi:nodetypes="ccccccccccc" /><path
     style="fill:url(#linearGradient10360-0-1);fill-opacity:1;stroke:none;stroke-width:0.36000001;stroke-linecap:butt;stroke-linejoin:miter;stroke-miterlimit:4;stroke-dasharray:none;stroke-opacity:1"
     d="m 10.677649,44.281732 -0.304203,1.235905 -0.323293,-4.011919 3.403509,2.148516 -1.235903,-0.304203 c 2.209319,6.11753 5.800468,5.961253 9.283518,6.295768 l -0.903531,-0.896455 3.607048,1.785834 -3.592896,1.814137 0.896455,-0.903531 C 16.819769,51.39965 12.454524,50.651311 10.677649,44.281732 Z"
     id="path2773-4-5"
     inkscape:connector-curvature="0"
     sodipodi:nodetypes="ccccccccccc" /></svg>