<?xml version="1.0" encoding="UTF-8" standalone="no"?>
<!DOCTYPE svg PUBLIC "-//W3C//DTD SVG 1.1//EN"
 "http://www.w3.org/Graphics/SVG/1.1/DTD/svg11.dtd">
<!-- Generated by graphviz version 2.44.1 (20200629.0846)
 -->
<!-- Title: sphinx&#45;ext&#45;graphviz Pages: 1 -->
<svg width="432pt" height="176pt"
 viewBox="0.00 0.00 432.00 175.66" xmlns="http://www.w3.org/2000/svg" xmlns:xlink="http://www.w3.org/1999/xlink">
<g id="graph0" class="graph" transform="scale(0.85 0.85) rotate(0) translate(4 202)">
<title>sphinx&#45;ext&#45;graphviz</title>
<polygon fill="white" stroke="transparent" points="-4,4 -4,-202 502.62,-202 502.62,4 -4,4"/>
<!-- NodeWindowEditor -->
<g id="node1" class="node">
<title>NodeWindowEditor</title>
<polygon fill="none" stroke="black" points="133,-117 130,-121 109,-121 106,-117 0,-117 0,-81 133,-81 133,-117"/>
<text text-anchor="middle" x="66.5" y="-95.9" font-family="Verdana" font-size="12.00">NodeEditorWindow</text>
</g>
<!-- NodeEditorWidget -->
<g id="node2" class="node">
<title>NodeEditorWidget</title>
<ellipse fill="none" stroke="black" cx="275.8" cy="-99" rx="78.59" ry="18"/>
<text text-anchor="middle" x="275.8" y="-95.9" font-family="Verdana" font-size="12.00">NodeEditorWidget</text>
</g>
<!-- NodeWindowEditor&#45;&gt;NodeEditorWidget -->
<g id="edge1" class="edge">
<title>NodeWindowEditor&#45;&gt;NodeEditorWidget</title>
<path fill="none" stroke="black" d="M133.09,-99C150.12,-99 168.75,-99 186.74,-99"/>
<polygon fill="black" stroke="black" points="186.94,-102.5 196.94,-99 186.94,-95.5 186.94,-102.5"/>
<text text-anchor="middle" x="165" y="-101.8" font-family="Sans" font-size="9.00"> holds </text>
</g>
<!-- Scene -->
<g id="node3" class="node">
<title>Scene</title>
<ellipse fill="none" stroke="black" cx="458.6" cy="-180" rx="32.75" ry="18"/>
<text text-anchor="middle" x="458.6" y="-176.9" font-family="Verdana" font-size="12.00">Scene</text>
</g>
<!-- NodeEditorWidget&#45;&gt;Scene -->
<g id="edge2" class="edge">
<title>NodeEditorWidget&#45;&gt;Scene</title>
<path fill="none" stroke="black" d="M312.52,-115C344.69,-129.42 391.68,-150.47 423.38,-164.67"/>
<polygon fill="black" stroke="black" points="422.14,-167.95 432.7,-168.84 425,-161.56 422.14,-167.95"/>
<text text-anchor="middle" x="386.59" y="-155.8" font-family="Sans" font-size="9.00"> holds </text>
</g>
<!-- grScene -->
<g id="node4" class="node">
<title>grScene</title>
<ellipse fill="none" stroke="black" cx="458.6" cy="-126" rx="40.03" ry="18"/>
<text text-anchor="middle" x="458.6" y="-122.9" font-family="Verdana" font-size="12.00">grScene</text>
</g>
<!-- NodeEditorWidget&#45;&gt;grScene -->
<g id="edge3" class="edge">
<title>NodeEditorWidget&#45;&gt;grScene</title>
<path fill="none" stroke="black" d="M342.07,-108.75C364.67,-112.12 389.55,-115.84 410.41,-118.95"/>
<polygon fill="black" stroke="black" points="409.9,-122.41 420.3,-120.43 410.93,-115.49 409.9,-122.41"/>
<text text-anchor="middle" x="386.59" y="-119.8" font-family="Sans" font-size="9.00"> holds </text>
</g>
<!-- nodes -->
<g id="node5" class="node">
<title>nodes</title>
<ellipse fill="none" stroke="black" cx="458.6" cy="-72" rx="32.75" ry="18"/>
<text text-anchor="middle" x="458.6" y="-68.9" font-family="Verdana" font-size="12.00">nodes</text>
</g>
<!-- NodeEditorWidget&#45;&gt;nodes -->
<g id="edge4" class="edge">
<title>NodeEditorWidget&#45;&gt;nodes</title>
<path fill="none" stroke="black" d="M342.07,-89.25C367.05,-85.52 394.8,-81.38 416.84,-78.09"/>
<polygon fill="black" stroke="black" points="417.48,-81.53 426.85,-76.59 416.45,-74.61 417.48,-81.53"/>
</g>
<!-- edges -->
<g id="node6" class="node">
<title>edges</title>
<ellipse fill="none" stroke="black" cx="458.6" cy="-18" rx="32.75" ry="18"/>
<text text-anchor="middle" x="458.6" y="-14.9" font-family="Verdana" font-size="12.00">edges</text>
</g>
<!-- NodeEditorWidget&#45;&gt;edges -->
<g id="edge5" class="edge">
<title>NodeEditorWidget&#45;&gt;edges</title>
<path fill="none" stroke="black" d="M312.52,-83C344.69,-68.58 391.68,-47.53 423.38,-33.33"/>
<polygon fill="black" stroke="black" points="425,-36.44 432.7,-29.16 422.14,-30.05 425,-36.44"/>
</g>
</g>
</svg>
