<?xml version="1.0" encoding="UTF-8" standalone="no"?>
<!DOCTYPE svg PUBLIC "-//W3C//DTD SVG 1.1//EN"
 "http://www.w3.org/Graphics/SVG/1.1/DTD/svg11.dtd">
<!-- Generated by graphviz version 2.44.1 (20200629.0846)
 -->
<!-- Title: sphinx&#45;ext&#45;graphviz Pages: 1 -->
<svg width="432pt" height="223pt"
 viewBox="0.00 0.00 432.00 223.09" xmlns="http://www.w3.org/2000/svg" xmlns:xlink="http://www.w3.org/1999/xlink">
<g id="graph0" class="graph" transform="scale(0.58 0.58) rotate(0) translate(4 381)">
<title>sphinx&#45;ext&#45;graphviz</title>
<polygon fill="white" stroke="transparent" points="-4,4 -4,-381 741.53,-381 741.53,4 -4,4"/>
<!-- NodeWindowEditor -->
<g id="node1" class="node">
<title>NodeWindowEditor</title>
<polygon fill="none" stroke="black" points="133,-53 130,-57 109,-57 106,-53 0,-53 0,-17 133,-17 133,-53"/>
<text text-anchor="middle" x="66.5" y="-31.9" font-family="Verdana" font-size="12.00">NodeEditorWindow</text>
</g>
<!-- NodeEditorWidget -->
<g id="node8" class="node">
<title>NodeEditorWidget</title>
<ellipse fill="none" stroke="black" cx="296.73" cy="-35" rx="78.59" ry="18"/>
<text text-anchor="middle" x="296.73" y="-31.9" font-family="Verdana" font-size="12.00">NodeEditorWidget</text>
</g>
<!-- NodeWindowEditor&#45;&gt;NodeEditorWidget -->
<g id="edge1" class="edge">
<title>NodeWindowEditor&#45;&gt;NodeEditorWidget</title>
<path fill="none" stroke="black" d="M133.21,-35C156.35,-35 182.76,-35 207.47,-35"/>
<polygon fill="black" stroke="black" points="207.57,-38.5 217.57,-35 207.57,-31.5 207.57,-38.5"/>
<text text-anchor="middle" x="165" y="-37.8" font-family="Sans" font-size="9.00"> holds </text>
</g>
<!-- nodes -->
<g id="node2" class="node">
<title>nodes</title>
<ellipse fill="none" stroke="black" cx="650.12" cy="-126" rx="87.33" ry="18"/>
<text text-anchor="middle" x="650.12" y="-122.9" font-family="Verdana" font-size="12.00">Nodes (list of Node)</text>
</g>
<!-- Inputs -->
<g id="node3" class="node">
<title>Inputs</title>
<ellipse fill="none" stroke="black" cx="296.73" cy="-251" rx="93.64" ry="18"/>
<text text-anchor="middle" x="296.73" y="-247.9" font-family="Verdana" font-size="12.00">Inputs (list of Socket)</text>
</g>
<!-- Outputs -->
<g id="node4" class="node">
<title>Outputs</title>
<ellipse fill="none" stroke="black" cx="296.73" cy="-197" rx="99.95" ry="18"/>
<text text-anchor="middle" x="296.73" y="-193.9" font-family="Verdana" font-size="12.00">Outputs (list of Socket)</text>
</g>
<!-- edges -->
<g id="node5" class="node">
<title>edges</title>
<ellipse fill="none" stroke="black" cx="650.12" cy="-72" rx="85.63" ry="18"/>
<text text-anchor="middle" x="650.12" y="-68.9" font-family="Verdana" font-size="12.00">Edges (list of Edge)</text>
</g>
<!-- StartSocket -->
<g id="node6" class="node">
<title>StartSocket</title>
<ellipse fill="none" stroke="black" cx="296.73" cy="-359" rx="56.04" ry="18"/>
<text text-anchor="middle" x="296.73" y="-355.9" font-family="Verdana" font-size="12.00">Start socket</text>
</g>
<!-- EndSocket -->
<g id="node7" class="node">
<title>EndSocket</title>
<ellipse fill="none" stroke="black" cx="296.73" cy="-305" rx="51.19" ry="18"/>
<text text-anchor="middle" x="296.73" y="-301.9" font-family="Verdana" font-size="12.00">End socket</text>
</g>
<!-- Scene -->
<g id="node9" class="node">
<title>Scene</title>
<ellipse fill="none" stroke="black" cx="493.08" cy="-68" rx="32.75" ry="18"/>
<text text-anchor="middle" x="493.08" y="-64.9" font-family="Verdana" font-size="12.00">Scene</text>
</g>
<!-- NodeEditorWidget&#45;&gt;Scene -->
<g id="edge2" class="edge">
<title>NodeEditorWidget&#45;&gt;Scene</title>
<path fill="none" stroke="black" d="M360.56,-45.67C390.42,-50.74 425.25,-56.65 451.56,-61.12"/>
<polygon fill="black" stroke="black" points="451.11,-64.59 461.55,-62.82 452.28,-57.69 451.11,-64.59"/>
<text text-anchor="middle" x="428.45" y="-62.8" font-family="Sans" font-size="9.00"> holds </text>
</g>
<!-- grScene -->
<g id="node10" class="node">
<title>grScene</title>
<ellipse fill="none" stroke="black" cx="650.12" cy="-18" rx="40.03" ry="18"/>
<text text-anchor="middle" x="650.12" y="-14.9" font-family="Verdana" font-size="12.00">grScene</text>
</g>
<!-- NodeEditorWidget&#45;&gt;grScene -->
<g id="edge3" class="edge">
<title>NodeEditorWidget&#45;&gt;grScene</title>
<path fill="none" stroke="black" d="M373.97,-31.31C442.52,-27.99 541.19,-23.22 599.86,-20.38"/>
<polygon fill="black" stroke="black" points="600.16,-23.87 609.98,-19.89 599.82,-16.88 600.16,-23.87"/>
<text text-anchor="middle" x="493.08" y="-30.8" font-family="Sans" font-size="9.00"> holds </text>
</g>
<!-- Scene&#45;&gt;nodes -->
<g id="edge4" class="edge">
<title>Scene&#45;&gt;nodes</title>
<path fill="none" stroke="black" d="M518.23,-79.78C531.24,-85.9 547.67,-93.28 562.7,-99 571.12,-102.2 580.09,-105.32 588.96,-108.24"/>
<polygon fill="black" stroke="black" points="587.91,-111.58 598.5,-111.32 590.06,-104.91 587.91,-111.58"/>
</g>
<!-- Scene&#45;&gt;edges -->
<g id="edge5" class="edge">
<title>Scene&#45;&gt;edges</title>
<path fill="none" stroke="black" d="M525.82,-68.82C534.55,-69.04 544.49,-69.3 554.84,-69.57"/>
<polygon fill="black" stroke="black" points="554.78,-73.07 564.87,-69.83 554.96,-66.07 554.78,-73.07"/>
</g>
<!-- Scene&#45;&gt;grScene -->
<g id="edge6" class="edge">
<title>Scene&#45;&gt;grScene</title>
<path fill="none" stroke="black" d="M521.42,-58.69C533.97,-54.46 549.07,-49.41 562.7,-45 577.02,-40.36 592.72,-35.42 606.76,-31.04"/>
<polygon fill="black" stroke="black" points="608.14,-34.28 616.65,-27.97 606.06,-27.6 608.14,-34.28"/>
</g>
<!-- Node -->
<g id="node11" class="node">
<title>Node</title>
<ellipse fill="none" stroke="black" cx="66.5" cy="-170" rx="29.6" ry="18"/>
<text text-anchor="middle" x="66.5" y="-166.9" font-family="Verdana" font-size="12.00">Node</text>
</g>
<!-- Node&#45;&gt;Inputs -->
<g id="edge9" class="edge">
<title>Node&#45;&gt;Inputs</title>
<path fill="none" stroke="black" d="M90.55,-180.67C116.18,-192.28 158.99,-210.94 197,-224 207.29,-227.54 218.31,-230.93 229.12,-234.04"/>
<polygon fill="black" stroke="black" points="228.39,-237.47 238.96,-236.81 230.29,-230.73 228.39,-237.47"/>
</g>
<!-- Node&#45;&gt;Outputs -->
<g id="edge10" class="edge">
<title>Node&#45;&gt;Outputs</title>
<path fill="none" stroke="black" d="M95.94,-173.36C122.71,-176.53 164.29,-181.45 202.6,-185.98"/>
<polygon fill="black" stroke="black" points="202.44,-189.49 212.78,-187.19 203.26,-182.54 202.44,-189.49"/>
</g>
<!-- grNode -->
<g id="node12" class="node">
<title>grNode</title>
<ellipse fill="none" stroke="black" cx="296.73" cy="-143" rx="36.87" ry="18"/>
<text text-anchor="middle" x="296.73" y="-139.9" font-family="Verdana" font-size="12.00">grNode</text>
</g>
<!-- Node&#45;&gt;grNode -->
<g id="edge7" class="edge">
<title>Node&#45;&gt;grNode</title>
<path fill="none" stroke="black" d="M95.94,-166.64C134.71,-162.05 204.58,-153.78 250.55,-148.34"/>
<polygon fill="black" stroke="black" points="251.03,-151.81 260.55,-147.16 250.21,-144.86 251.03,-151.81"/>
</g>
<!-- Content -->
<g id="node13" class="node">
<title>Content</title>
<ellipse fill="none" stroke="black" cx="296.73" cy="-89" rx="40.03" ry="18"/>
<text text-anchor="middle" x="296.73" y="-85.9" font-family="Verdana" font-size="12.00">Content</text>
</g>
<!-- Node&#45;&gt;Content -->
<g id="edge8" class="edge">
<title>Node&#45;&gt;Content</title>
<path fill="none" stroke="black" d="M90.55,-159.33C116.18,-147.72 158.99,-129.06 197,-116 214.56,-109.97 234.23,-104.36 251.37,-99.84"/>
<polygon fill="black" stroke="black" points="252.33,-103.2 261.13,-97.3 250.57,-96.43 252.33,-103.2"/>
</g>
<!-- Edge -->
<g id="node14" class="node">
<title>Edge</title>
<ellipse fill="none" stroke="black" cx="66.5" cy="-332" rx="28.87" ry="18"/>
<text text-anchor="middle" x="66.5" y="-328.9" font-family="Verdana" font-size="12.00">Edge</text>
</g>
<!-- Edge&#45;&gt;StartSocket -->
<g id="edge11" class="edge">
<title>Edge&#45;&gt;StartSocket</title>
<path fill="none" stroke="black" d="M95.03,-335.26C129.2,-339.3 188.49,-346.31 233.8,-351.67"/>
<polygon fill="black" stroke="black" points="233.48,-355.16 243.82,-352.86 234.3,-348.21 233.48,-355.16"/>
</g>
<!-- Edge&#45;&gt;EndSocket -->
<g id="edge12" class="edge">
<title>Edge&#45;&gt;EndSocket</title>
<path fill="none" stroke="black" d="M95.03,-328.74C130.19,-324.58 191.95,-317.28 237.71,-311.86"/>
<polygon fill="black" stroke="black" points="238.27,-315.32 247.79,-310.67 237.45,-308.37 238.27,-315.32"/>
</g>
</g>
</svg>
