<?xml version="1.0" encoding="UTF-8" standalone="no"?>
<!DOCTYPE svg PUBLIC "-//W3C//DTD SVG 1.1//EN"
 "http://www.w3.org/Graphics/SVG/1.1/DTD/svg11.dtd">
<!-- Generated by graphviz version 2.44.1 (20200629.0846)
 -->
<!-- Title: sphinx&#45;ext&#45;graphviz Pages: 1 -->
<svg width="432pt" height="89pt"
 viewBox="0.00 0.00 432.00 88.75" xmlns="http://www.w3.org/2000/svg" xmlns:xlink="http://www.w3.org/1999/xlink">
<g id="graph0" class="graph" transform="scale(0.91 0.91) rotate(0) translate(4 94)">
<title>sphinx&#45;ext&#45;graphviz</title>
<polygon fill="white" stroke="transparent" points="-4,4 -4,-94 473.03,-94 473.03,4 -4,4"/>
<!-- NodeWindowEditor -->
<g id="node1" class="node">
<title>NodeWindowEditor</title>
<polygon fill="none" stroke="black" points="133,-63 130,-67 109,-67 106,-63 0,-63 0,-27 133,-27 133,-63"/>
<text text-anchor="middle" x="66.5" y="-41.9" font-family="Verdana" font-size="12.00">NodeEditorWindow</text>
</g>
<!-- NodeEditorWidget -->
<g id="node2" class="node">
<title>NodeEditorWidget</title>
<polygon fill="green" stroke="black" points="325,-63 197,-63 197,-59 193,-59 193,-55 197,-55 197,-35 193,-35 193,-31 197,-31 197,-27 325,-27 325,-63"/>
<polyline fill="none" stroke="black" points="197,-59 201,-59 201,-55 197,-55 "/>
<polyline fill="none" stroke="black" points="197,-35 201,-35 201,-31 197,-31 "/>
<text text-anchor="middle" x="261" y="-41.9" font-family="Verdana" font-size="12.00">NodeEditorWidget</text>
</g>
<!-- NodeWindowEditor&#45;&gt;NodeEditorWidget -->
<g id="edge1" class="edge">
<title>NodeWindowEditor&#45;&gt;NodeEditorWidget</title>
<path fill="none" stroke="black" d="M133.21,-45C150.42,-45 169.08,-45 186.66,-45"/>
<polygon fill="black" stroke="black" points="186.86,-48.5 196.86,-45 186.86,-41.5 186.86,-48.5"/>
<text text-anchor="middle" x="165" y="-47.8" font-family="Sans" font-size="9.00"> holds </text>
</g>
<!-- Scene -->
<g id="node3" class="node">
<title>Scene</title>
<ellipse fill="none" stroke="black" cx="429.01" cy="-72" rx="32.75" ry="18"/>
<text text-anchor="middle" x="429.01" y="-68.9" font-family="Verdana" font-size="12.00">Scene</text>
</g>
<!-- NodeEditorWidget&#45;&gt;Scene -->
<g id="edge2" class="edge">
<title>NodeEditorWidget&#45;&gt;Scene</title>
<path fill="none" stroke="black" d="M325.24,-55.28C346.11,-58.68 368.76,-62.36 387.47,-65.41"/>
<polygon fill="black" stroke="black" points="386.99,-68.87 397.42,-67.02 388.11,-61.96 386.99,-68.87"/>
<text text-anchor="middle" x="357" y="-64.8" font-family="Sans" font-size="9.00"> holds </text>
</g>
<!-- grScene -->
<g id="node4" class="node">
<title>grScene</title>
<ellipse fill="none" stroke="black" cx="429.01" cy="-18" rx="40.03" ry="18"/>
<text text-anchor="middle" x="429.01" y="-14.9" font-family="Verdana" font-size="12.00">grScene</text>
</g>
<!-- NodeEditorWidget&#45;&gt;grScene -->
<g id="edge3" class="edge">
<title>NodeEditorWidget&#45;&gt;grScene</title>
<path fill="none" stroke="black" d="M325.24,-34.72C343.77,-31.7 363.71,-28.46 381.04,-25.64"/>
<polygon fill="black" stroke="black" points="381.6,-29.09 390.91,-24.03 380.48,-22.18 381.6,-29.09"/>
<text text-anchor="middle" x="357" y="-33.8" font-family="Sans" font-size="9.00"> holds </text>
</g>
</g>
</svg>
