<?xml version="1.0" encoding="UTF-8" standalone="no"?>
<!DOCTYPE svg PUBLIC "-//W3C//DTD SVG 1.1//EN"
 "http://www.w3.org/Graphics/SVG/1.1/DTD/svg11.dtd">
<!-- Generated by graphviz version 2.44.1 (20200629.0846)
 -->
<!-- Title: sphinx&#45;ext&#45;graphviz Pages: 1 -->
<svg width="214pt" height="98pt"
 viewBox="0.00 0.00 213.90 98.00" xmlns="http://www.w3.org/2000/svg" xmlns:xlink="http://www.w3.org/1999/xlink">
<g id="graph0" class="graph" transform="scale(1 1) rotate(0) translate(4 94)">
<title>sphinx&#45;ext&#45;graphviz</title>
<polygon fill="white" stroke="transparent" points="-4,4 -4,-94 209.9,-94 209.9,4 -4,4"/>
<!-- StartSocket -->
<g id="node1" class="node">
<title>StartSocket</title>
<ellipse fill="none" stroke="black" cx="149.88" cy="-72" rx="56.04" ry="18"/>
<text text-anchor="middle" x="149.88" y="-68.9" font-family="Verdana" font-size="12.00">Start socket</text>
</g>
<!-- EndSocket -->
<g id="node2" class="node">
<title>EndSocket</title>
<ellipse fill="none" stroke="black" cx="149.88" cy="-18" rx="51.19" ry="18"/>
<text text-anchor="middle" x="149.88" y="-14.9" font-family="Verdana" font-size="12.00">End socket</text>
</g>
<!-- Edge -->
<g id="node3" class="node">
<title>Edge</title>
<ellipse fill="none" stroke="black" cx="28.93" cy="-45" rx="28.87" ry="18"/>
<text text-anchor="middle" x="28.93" y="-41.9" font-family="Verdana" font-size="12.00">Edge</text>
</g>
<!-- Edge&#45;&gt;StartSocket -->
<g id="edge1" class="edge">
<title>Edge&#45;&gt;StartSocket</title>
<path fill="none" stroke="black" d="M56.33,-50.99C67.35,-53.49 80.59,-56.5 93.56,-59.44"/>
<polygon fill="black" stroke="black" points="92.86,-62.87 103.39,-61.67 94.41,-56.05 92.86,-62.87"/>
</g>
<!-- Edge&#45;&gt;EndSocket -->
<g id="edge2" class="edge">
<title>Edge&#45;&gt;EndSocket</title>
<path fill="none" stroke="black" d="M56.33,-39.01C68.12,-36.33 82.45,-33.08 96.27,-29.94"/>
<polygon fill="black" stroke="black" points="97.23,-33.31 106.21,-27.69 95.68,-26.49 97.23,-33.31"/>
</g>
</g>
</svg>
