<?xml version="1.0" encoding="UTF-8" standalone="no"?>
<!DOCTYPE svg PUBLIC "-//W3C//DTD SVG 1.1//EN"
 "http://www.w3.org/Graphics/SVG/1.1/DTD/svg11.dtd">
<!-- Generated by graphviz version 2.44.1 (20200629.0846)
 -->
<!-- Title: sphinx&#45;ext&#45;graphviz Pages: 1 -->
<svg width="432pt" height="162pt"
 viewBox="0.00 0.00 432.00 161.90" xmlns="http://www.w3.org/2000/svg" xmlns:xlink="http://www.w3.org/1999/xlink">
<g id="graph0" class="graph" transform="scale(0.52 0.52) rotate(0) translate(4 310)">
<title>sphinx&#45;ext&#45;graphviz</title>
<polygon fill="white" stroke="transparent" points="-4,4 -4,-310 833.87,-310 833.87,4 -4,4"/>
<!-- NodeWindowEditor -->
<g id="node1" class="node">
<title>NodeWindowEditor</title>
<polygon fill="none" stroke="black" points="133,-287 130,-291 109,-291 106,-287 0,-287 0,-251 133,-251 133,-287"/>
<text text-anchor="middle" x="66.5" y="-265.9" font-family="Verdana" font-size="12.00">NodeEditorWindow</text>
</g>
<!-- NodeEditorWidget -->
<g id="node6" class="node">
<title>NodeEditorWidget</title>
<ellipse fill="none" stroke="black" cx="275.8" cy="-269" rx="78.59" ry="18"/>
<text text-anchor="middle" x="275.8" y="-265.9" font-family="Verdana" font-size="12.00">NodeEditorWidget</text>
</g>
<!-- NodeWindowEditor&#45;&gt;NodeEditorWidget -->
<g id="edge1" class="edge">
<title>NodeWindowEditor&#45;&gt;NodeEditorWidget</title>
<path fill="none" stroke="black" d="M133.09,-269C150.12,-269 168.75,-269 186.74,-269"/>
<polygon fill="black" stroke="black" points="186.94,-272.5 196.94,-269 186.94,-265.5 186.94,-272.5"/>
<text text-anchor="middle" x="165" y="-271.8" font-family="Sans" font-size="9.00"> holds </text>
</g>
<!-- nodes -->
<g id="node2" class="node">
<title>nodes</title>
<ellipse fill="none" stroke="black" cx="742.45" cy="-261" rx="87.33" ry="18"/>
<text text-anchor="middle" x="742.45" y="-257.9" font-family="Verdana" font-size="12.00">Nodes (list of Node)</text>
</g>
<!-- edges -->
<g id="node3" class="node">
<title>edges</title>
<ellipse fill="none" stroke="black" cx="742.45" cy="-207" rx="85.63" ry="18"/>
<text text-anchor="middle" x="742.45" y="-203.9" font-family="Verdana" font-size="12.00">Edges (list of Edge)</text>
</g>
<!-- Inputs -->
<g id="node4" class="node">
<title>Inputs</title>
<ellipse fill="none" stroke="black" cx="518.32" cy="-126" rx="93.64" ry="18"/>
<text text-anchor="middle" x="518.32" y="-122.9" font-family="Verdana" font-size="12.00">Inputs (list of Socket)</text>
</g>
<!-- Outputs -->
<g id="node5" class="node">
<title>Outputs</title>
<ellipse fill="none" stroke="black" cx="518.32" cy="-72" rx="99.95" ry="18"/>
<text text-anchor="middle" x="518.32" y="-68.9" font-family="Verdana" font-size="12.00">Outputs (list of Socket)</text>
</g>
<!-- Scene -->
<g id="node7" class="node">
<title>Scene</title>
<ellipse fill="none" stroke="black" cx="518.32" cy="-234" rx="32.75" ry="18"/>
<text text-anchor="middle" x="518.32" y="-230.9" font-family="Verdana" font-size="12.00">Scene</text>
</g>
<!-- NodeEditorWidget&#45;&gt;Scene -->
<g id="edge2" class="edge">
<title>NodeEditorWidget&#45;&gt;Scene</title>
<path fill="none" stroke="black" d="M342.84,-259.39C385.49,-253.18 439.66,-245.3 476.23,-239.98"/>
<polygon fill="black" stroke="black" points="477.13,-243.38 486.52,-238.48 476.12,-236.46 477.13,-243.38"/>
<text text-anchor="middle" x="386.59" y="-257.8" font-family="Sans" font-size="9.00"> holds </text>
</g>
<!-- grScene -->
<g id="node8" class="node">
<title>grScene</title>
<ellipse fill="none" stroke="black" cx="518.32" cy="-288" rx="40.03" ry="18"/>
<text text-anchor="middle" x="518.32" y="-284.9" font-family="Verdana" font-size="12.00">grScene</text>
</g>
<!-- NodeEditorWidget&#45;&gt;grScene -->
<g id="edge3" class="edge">
<title>NodeEditorWidget&#45;&gt;grScene</title>
<path fill="none" stroke="black" d="M350.59,-274.83C388.89,-277.85 434.61,-281.47 468.48,-284.14"/>
<polygon fill="black" stroke="black" points="468.34,-287.64 478.59,-284.94 468.89,-280.66 468.34,-287.64"/>
<text text-anchor="middle" x="386.59" y="-281.8" font-family="Sans" font-size="9.00"> holds </text>
</g>
<!-- Scene&#45;&gt;nodes -->
<g id="edge4" class="edge">
<title>Scene&#45;&gt;nodes</title>
<path fill="none" stroke="black" d="M550.67,-237.81C578.11,-241.15 619.27,-246.15 656.34,-250.65"/>
<polygon fill="black" stroke="black" points="656.32,-254.18 666.67,-251.91 657.17,-247.23 656.32,-254.18"/>
</g>
<!-- Scene&#45;&gt;edges -->
<g id="edge5" class="edge">
<title>Scene&#45;&gt;edges</title>
<path fill="none" stroke="black" d="M550.67,-230.19C578.56,-226.8 620.61,-221.69 658.14,-217.13"/>
<polygon fill="black" stroke="black" points="658.58,-220.6 668.08,-215.92 657.74,-213.65 658.58,-220.6"/>
</g>
<!-- Node -->
<g id="node9" class="node">
<title>Node</title>
<ellipse fill="none" stroke="black" cx="275.8" cy="-126" rx="29.6" ry="18"/>
<text text-anchor="middle" x="275.8" y="-122.9" font-family="Verdana" font-size="12.00">Node</text>
</g>
<!-- Node&#45;&gt;Inputs -->
<g id="edge9" class="edge">
<title>Node&#45;&gt;Inputs</title>
<path fill="none" stroke="black" d="M305.81,-126C332.88,-126 374.9,-126 414.39,-126"/>
<polygon fill="black" stroke="black" points="414.63,-129.5 424.63,-126 414.63,-122.5 414.63,-129.5"/>
</g>
<!-- Node&#45;&gt;Outputs -->
<g id="edge10" class="edge">
<title>Node&#45;&gt;Outputs</title>
<path fill="none" stroke="black" d="M303.92,-119.91C337.87,-112.29 397.34,-98.94 444.89,-88.26"/>
<polygon fill="black" stroke="black" points="445.85,-91.63 454.84,-86.03 444.31,-84.8 445.85,-91.63"/>
</g>
<!-- Node&#45;&gt;Scene -->
<g id="edge6" class="edge">
<title>Node&#45;&gt;Scene</title>
<path fill="none" stroke="black" d="M296.18,-139.19C322.76,-156.77 372.5,-187.89 418.59,-207 437.43,-214.81 459.21,-221.04 477.52,-225.54"/>
<polygon fill="black" stroke="black" points="476.75,-228.96 487.29,-227.86 478.37,-222.15 476.75,-228.96"/>
</g>
<!-- grNode -->
<g id="node10" class="node">
<title>grNode</title>
<ellipse fill="none" stroke="black" cx="518.32" cy="-18" rx="36.87" ry="18"/>
<text text-anchor="middle" x="518.32" y="-14.9" font-family="Verdana" font-size="12.00">grNode</text>
</g>
<!-- Node&#45;&gt;grNode -->
<g id="edge7" class="edge">
<title>Node&#45;&gt;grNode</title>
<path fill="none" stroke="black" d="M296.18,-112.81C322.76,-95.23 372.5,-64.11 418.59,-45 436.29,-37.66 456.6,-31.72 474.17,-27.29"/>
<polygon fill="black" stroke="black" points="475.27,-30.62 484.17,-24.86 473.62,-23.82 475.27,-30.62"/>
</g>
<!-- Content -->
<g id="node11" class="node">
<title>Content</title>
<ellipse fill="none" stroke="black" cx="518.32" cy="-180" rx="40.03" ry="18"/>
<text text-anchor="middle" x="518.32" y="-176.9" font-family="Verdana" font-size="12.00">Content</text>
</g>
<!-- Node&#45;&gt;Content -->
<g id="edge8" class="edge">
<title>Node&#45;&gt;Content</title>
<path fill="none" stroke="black" d="M303.92,-132.09C344.84,-141.28 422.82,-158.78 472.33,-169.9"/>
<polygon fill="black" stroke="black" points="471.61,-173.33 482.14,-172.1 473.15,-166.5 471.61,-173.33"/>
</g>
<!-- Edge -->
<g id="node12" class="node">
<title>Edge</title>
<ellipse fill="none" stroke="black" cx="66.5" cy="-126" rx="28.87" ry="18"/>
<text text-anchor="middle" x="66.5" y="-122.9" font-family="Verdana" font-size="12.00">Edge</text>
</g>
<!-- Edge&#45;&gt;Node -->
<g id="edge11" class="edge">
<title>Edge&#45;&gt;Node</title>
<path fill="none" stroke="black" d="M95.46,-126C131.65,-126 194.91,-126 235.81,-126"/>
<polygon fill="black" stroke="black" points="235.95,-129.5 245.95,-126 235.95,-122.5 235.95,-129.5"/>
</g>
</g>
</svg>
