<?xml version="1.0" encoding="UTF-8" standalone="no"?>
<!DOCTYPE svg PUBLIC "-//W3C//DTD SVG 1.1//EN"
 "http://www.w3.org/Graphics/SVG/1.1/DTD/svg11.dtd">
<!-- Generated by graphviz version 2.44.1 (20200629.0846)
 -->
<!-- Title: sphinx&#45;ext&#45;graphviz Pages: 1 -->
<svg width="432pt" height="188pt"
 viewBox="0.00 0.00 432.00 188.49" xmlns="http://www.w3.org/2000/svg" xmlns:xlink="http://www.w3.org/1999/xlink">
<g id="graph0" class="graph" transform="scale(0.6 0.6) rotate(0) translate(4 310)">
<title>sphinx&#45;ext&#45;graphviz</title>
<polygon fill="white" stroke="transparent" points="-4,4 -4,-310 715.67,-310 715.67,4 -4,4"/>
<!-- NodeWindowEditor -->
<g id="node1" class="node">
<title>NodeWindowEditor</title>
<polygon fill="none" stroke="black" points="133,-287 130,-291 109,-291 106,-287 0,-287 0,-251 133,-251 133,-287"/>
<text text-anchor="middle" x="66.5" y="-265.9" font-family="Verdana" font-size="12.00">NodeEditorWindow</text>
</g>
<!-- NodeEditorWidget -->
<g id="node4" class="node">
<title>NodeEditorWidget</title>
<ellipse fill="none" stroke="black" cx="275.8" cy="-269" rx="78.59" ry="18"/>
<text text-anchor="middle" x="275.8" y="-265.9" font-family="Verdana" font-size="12.00">NodeEditorWidget</text>
</g>
<!-- NodeWindowEditor&#45;&gt;NodeEditorWidget -->
<g id="edge1" class="edge">
<title>NodeWindowEditor&#45;&gt;NodeEditorWidget</title>
<path fill="none" stroke="black" d="M133.09,-269C150.12,-269 168.75,-269 186.74,-269"/>
<polygon fill="black" stroke="black" points="186.94,-272.5 196.94,-269 186.94,-265.5 186.94,-272.5"/>
<text text-anchor="middle" x="165" y="-271.8" font-family="Sans" font-size="9.00"> holds </text>
</g>
<!-- nodes -->
<g id="node2" class="node">
<title>nodes</title>
<ellipse fill="none" stroke="black" cx="624.26" cy="-261" rx="87.33" ry="18"/>
<text text-anchor="middle" x="624.26" y="-257.9" font-family="Verdana" font-size="12.00">Nodes (list of Node)</text>
</g>
<!-- edges -->
<g id="node3" class="node">
<title>edges</title>
<ellipse fill="none" stroke="black" cx="624.26" cy="-207" rx="85.63" ry="18"/>
<text text-anchor="middle" x="624.26" y="-203.9" font-family="Verdana" font-size="12.00">Edges (list of Edge)</text>
</g>
<!-- Scene -->
<g id="node5" class="node">
<title>Scene</title>
<ellipse fill="none" stroke="black" cx="459.22" cy="-234" rx="32.75" ry="18"/>
<text text-anchor="middle" x="459.22" y="-230.9" font-family="Verdana" font-size="12.00">Scene</text>
</g>
<!-- NodeEditorWidget&#45;&gt;Scene -->
<g id="edge2" class="edge">
<title>NodeEditorWidget&#45;&gt;Scene</title>
<path fill="none" stroke="black" d="M336.45,-257.49C363.38,-252.3 394.46,-246.3 418.48,-241.67"/>
<polygon fill="black" stroke="black" points="419.16,-245.1 428.31,-239.77 417.83,-238.23 419.16,-245.1"/>
<text text-anchor="middle" x="386.59" y="-253.8" font-family="Sans" font-size="9.00"> holds </text>
</g>
<!-- grScene -->
<g id="node6" class="node">
<title>grScene</title>
<ellipse fill="none" stroke="black" cx="459.22" cy="-288" rx="40.03" ry="18"/>
<text text-anchor="middle" x="459.22" y="-284.9" font-family="Verdana" font-size="12.00">grScene</text>
</g>
<!-- NodeEditorWidget&#45;&gt;grScene -->
<g id="edge3" class="edge">
<title>NodeEditorWidget&#45;&gt;grScene</title>
<path fill="none" stroke="black" d="M347.72,-276.43C368.61,-278.62 390.97,-280.96 410.08,-282.96"/>
<polygon fill="black" stroke="black" points="409.73,-286.44 420.04,-284 410.46,-279.48 409.73,-286.44"/>
<text text-anchor="middle" x="386.59" y="-284.8" font-family="Sans" font-size="9.00"> holds </text>
</g>
<!-- Scene&#45;&gt;nodes -->
<g id="edge4" class="edge">
<title>Scene&#45;&gt;nodes</title>
<path fill="none" stroke="black" d="M490.89,-239.08C506.44,-241.65 526.1,-244.91 545.49,-248.12"/>
<polygon fill="black" stroke="black" points="545.14,-251.61 555.57,-249.79 546.28,-244.7 545.14,-251.61"/>
</g>
<!-- Scene&#45;&gt;edges -->
<g id="edge5" class="edge">
<title>Scene&#45;&gt;edges</title>
<path fill="none" stroke="black" d="M490.89,-228.92C506.75,-226.29 526.89,-222.96 546.64,-219.69"/>
<polygon fill="black" stroke="black" points="547.3,-223.13 556.59,-218.04 546.16,-216.22 547.3,-223.13"/>
</g>
<!-- Node -->
<g id="node7" class="node">
<title>Node</title>
<ellipse fill="none" stroke="black" cx="275.8" cy="-126" rx="29.6" ry="18"/>
<text text-anchor="middle" x="275.8" y="-122.9" font-family="Verdana" font-size="12.00">Node</text>
</g>
<!-- Node&#45;&gt;Scene -->
<g id="edge6" class="edge">
<title>Node&#45;&gt;Scene</title>
<path fill="none" stroke="black" d="M297.61,-138.39C329.44,-157.34 390.41,-193.64 427.39,-215.65"/>
<polygon fill="black" stroke="black" points="425.86,-218.81 436.24,-220.92 429.44,-212.79 425.86,-218.81"/>
</g>
<!-- grNode -->
<g id="node8" class="node">
<title>grNode</title>
<ellipse fill="none" stroke="black" cx="459.22" cy="-126" rx="36.87" ry="18"/>
<text text-anchor="middle" x="459.22" y="-122.9" font-family="Verdana" font-size="12.00">grNode</text>
</g>
<!-- Node&#45;&gt;grNode -->
<g id="edge7" class="edge">
<title>Node&#45;&gt;grNode</title>
<path fill="none" stroke="black" d="M305.54,-126C334.16,-126 378.52,-126 412.07,-126"/>
<polygon fill="black" stroke="black" points="412.11,-129.5 422.11,-126 412.11,-122.5 412.11,-129.5"/>
</g>
<!-- Content -->
<g id="node9" class="node">
<title>Content</title>
<ellipse fill="none" stroke="black" cx="459.22" cy="-72" rx="40.03" ry="18"/>
<text text-anchor="middle" x="459.22" y="-68.9" font-family="Verdana" font-size="12.00">Content</text>
</g>
<!-- Node&#45;&gt;Content -->
<g id="edge8" class="edge">
<title>Node&#45;&gt;Content</title>
<path fill="none" stroke="black" d="M302.79,-118.26C332.22,-109.5 380.61,-95.1 415.58,-84.69"/>
<polygon fill="black" stroke="black" points="416.93,-87.94 425.52,-81.73 414.94,-81.23 416.93,-87.94"/>
</g>
<!-- Inputs -->
<g id="node10" class="node">
<title>Inputs</title>
<ellipse fill="none" stroke="black" cx="459.22" cy="-18" rx="34.45" ry="18"/>
<text text-anchor="middle" x="459.22" y="-14.9" font-family="Verdana" font-size="12.00">Inputs</text>
</g>
<!-- Node&#45;&gt;Inputs -->
<g id="edge9" class="edge">
<title>Node&#45;&gt;Inputs</title>
<path fill="none" stroke="black" d="M297.61,-113.61C329.27,-94.76 389.76,-58.76 426.79,-36.71"/>
<polygon fill="black" stroke="black" points="428.87,-39.55 435.67,-31.42 425.29,-33.53 428.87,-39.55"/>
</g>
<!-- Outputs -->
<g id="node11" class="node">
<title>Outputs</title>
<ellipse fill="none" stroke="black" cx="459.22" cy="-180" rx="40.76" ry="18"/>
<text text-anchor="middle" x="459.22" y="-176.9" font-family="Verdana" font-size="12.00">Outputs</text>
</g>
<!-- Node&#45;&gt;Outputs -->
<g id="edge10" class="edge">
<title>Node&#45;&gt;Outputs</title>
<path fill="none" stroke="black" d="M302.79,-133.74C332.04,-142.44 380.02,-156.72 414.95,-167.12"/>
<polygon fill="black" stroke="black" points="414.29,-170.58 424.88,-170.08 416.29,-163.87 414.29,-170.58"/>
</g>
<!-- Edge -->
<g id="node12" class="node">
<title>Edge</title>
<ellipse fill="none" stroke="black" cx="66.5" cy="-126" rx="28.87" ry="18"/>
<text text-anchor="middle" x="66.5" y="-122.9" font-family="Verdana" font-size="12.00">Edge</text>
</g>
<!-- Edge&#45;&gt;Node -->
<g id="edge11" class="edge">
<title>Edge&#45;&gt;Node</title>
<path fill="none" stroke="black" d="M95.46,-126C131.65,-126 194.91,-126 235.81,-126"/>
<polygon fill="black" stroke="black" points="235.95,-129.5 245.95,-126 235.95,-122.5 235.95,-129.5"/>
</g>
</g>
</svg>
