<?xml version="1.0" encoding="UTF-8" standalone="no"?>
<!DOCTYPE svg PUBLIC "-//W3C//DTD SVG 1.1//EN"
 "http://www.w3.org/Graphics/SVG/1.1/DTD/svg11.dtd">
<!-- Generated by graphviz version 2.44.1 (20200629.0846)
 -->
<!-- Title: sphinx&#45;ext&#45;graphviz Pages: 1 -->
<svg width="432pt" height="75pt"
 viewBox="0.00 0.00 432.00 75.16" xmlns="http://www.w3.org/2000/svg" xmlns:xlink="http://www.w3.org/1999/xlink">
<g id="graph0" class="graph" transform="scale(0.6 0.6) rotate(0) translate(4 121)">
<title>sphinx&#45;ext&#45;graphviz</title>
<polygon fill="white" stroke="transparent" points="-4,4 -4,-121 714.44,-121 714.44,4 -4,4"/>
<!-- NodeWindowEditor -->
<g id="node1" class="node">
<title>NodeWindowEditor</title>
<polygon fill="none" stroke="black" points="133,-52 130,-56 109,-56 106,-52 0,-52 0,-16 133,-16 133,-52"/>
<text text-anchor="middle" x="66.5" y="-30.9" font-family="Verdana" font-size="12.00">NodeEditorWindow</text>
</g>
<!-- NodeEditorWidget -->
<g id="node3" class="node">
<title>NodeEditorWidget</title>
<ellipse fill="none" stroke="black" cx="275.8" cy="-34" rx="78.59" ry="18"/>
<text text-anchor="middle" x="275.8" y="-30.9" font-family="Verdana" font-size="12.00">NodeEditorWidget</text>
</g>
<!-- NodeWindowEditor&#45;&gt;NodeEditorWidget -->
<g id="edge1" class="edge">
<title>NodeWindowEditor&#45;&gt;NodeEditorWidget</title>
<path fill="none" stroke="black" d="M133.09,-34C150.12,-34 168.75,-34 186.74,-34"/>
<polygon fill="black" stroke="black" points="186.94,-37.5 196.94,-34 186.94,-30.5 186.94,-37.5"/>
<text text-anchor="middle" x="165" y="-36.8" font-family="Sans" font-size="9.00"> holds </text>
</g>
<!-- nodes -->
<g id="node2" class="node">
<title>nodes</title>
<ellipse fill="none" stroke="black" cx="623.03" cy="-99" rx="87.33" ry="18"/>
<text text-anchor="middle" x="623.03" y="-95.9" font-family="Verdana" font-size="12.00">Nodes (list of Node)</text>
</g>
<!-- Scene -->
<g id="node4" class="node">
<title>Scene</title>
<ellipse fill="none" stroke="black" cx="458.6" cy="-72" rx="32.75" ry="18"/>
<text text-anchor="middle" x="458.6" y="-68.9" font-family="Verdana" font-size="12.00">Scene</text>
</g>
<!-- NodeEditorWidget&#45;&gt;Scene -->
<g id="edge2" class="edge">
<title>NodeEditorWidget&#45;&gt;Scene</title>
<path fill="none" stroke="black" d="M334.5,-46.13C361.72,-51.85 393.51,-58.53 417.97,-63.67"/>
<polygon fill="black" stroke="black" points="417.46,-67.14 427.96,-65.77 418.9,-60.29 417.46,-67.14"/>
<text text-anchor="middle" x="386.59" y="-61.8" font-family="Sans" font-size="9.00"> holds </text>
</g>
<!-- grScene -->
<g id="node5" class="node">
<title>grScene</title>
<ellipse fill="none" stroke="black" cx="458.6" cy="-18" rx="40.03" ry="18"/>
<text text-anchor="middle" x="458.6" y="-14.9" font-family="Verdana" font-size="12.00">grScene</text>
</g>
<!-- NodeEditorWidget&#45;&gt;grScene -->
<g id="edge3" class="edge">
<title>NodeEditorWidget&#45;&gt;grScene</title>
<path fill="none" stroke="black" d="M349.56,-27.56C369.58,-25.79 390.81,-23.91 409.1,-22.29"/>
<polygon fill="black" stroke="black" points="409.56,-25.77 419.21,-21.4 408.94,-18.79 409.56,-25.77"/>
<text text-anchor="middle" x="386.59" y="-28.8" font-family="Sans" font-size="9.00"> holds </text>
</g>
<!-- Scene&#45;&gt;nodes -->
<g id="edge4" class="edge">
<title>Scene&#45;&gt;nodes</title>
<path fill="none" stroke="black" d="M490.15,-77.08C505.65,-79.65 525.24,-82.91 544.55,-86.12"/>
<polygon fill="black" stroke="black" points="544.16,-89.6 554.6,-87.79 545.31,-82.7 544.16,-89.6"/>
</g>
<!-- edges -->
<g id="node6" class="node">
<title>edges</title>
<ellipse fill="none" stroke="black" cx="623.03" cy="-45" rx="32.75" ry="18"/>
<text text-anchor="middle" x="623.03" y="-41.9" font-family="Verdana" font-size="12.00">edges</text>
</g>
<!-- Scene&#45;&gt;edges -->
<g id="edge5" class="edge">
<title>Scene&#45;&gt;edges</title>
<path fill="none" stroke="black" d="M490.15,-66.92C516.02,-62.62 553.29,-56.43 581.62,-51.72"/>
<polygon fill="black" stroke="black" points="582.33,-55.15 591.62,-50.06 581.18,-48.24 582.33,-55.15"/>
</g>
</g>
</svg>
