<?xml version="1.0" encoding="UTF-8" standalone="no"?>
<!DOCTYPE svg PUBLIC "-//W3C//DTD SVG 1.1//EN"
 "http://www.w3.org/Graphics/SVG/1.1/DTD/svg11.dtd">
<!-- Generated by graphviz version 2.44.1 (20200629.0846)
 -->
<!-- Title: sphinx&#45;ext&#45;graphviz Pages: 1 -->
<svg width="432pt" height="223pt"
 viewBox="0.00 0.00 432.00 222.51" xmlns="http://www.w3.org/2000/svg" xmlns:xlink="http://www.w3.org/1999/xlink">
<g id="graph0" class="graph" transform="scale(0.58 0.58) rotate(0) translate(4 380)">
<title>sphinx&#45;ext&#45;graphviz</title>
<polygon fill="white" stroke="transparent" points="-4,4 -4,-380 741.53,-380 741.53,4 -4,4"/>
<!-- NodeWindowEditor -->
<g id="node1" class="node">
<title>NodeWindowEditor</title>
<polygon fill="none" stroke="black" points="133,-52 130,-56 109,-56 106,-52 0,-52 0,-16 133,-16 133,-52"/>
<text text-anchor="middle" x="66.5" y="-30.9" font-family="Verdana" font-size="12.00">NodeEditorWindow</text>
</g>
<!-- NodeEditorWidget -->
<g id="node8" class="node">
<title>NodeEditorWidget</title>
<ellipse fill="none" stroke="black" cx="296.73" cy="-34" rx="78.59" ry="18"/>
<text text-anchor="middle" x="296.73" y="-30.9" font-family="Verdana" font-size="12.00">NodeEditorWidget</text>
</g>
<!-- NodeWindowEditor&#45;&gt;NodeEditorWidget -->
<g id="edge1" class="edge">
<title>NodeWindowEditor&#45;&gt;NodeEditorWidget</title>
<path fill="none" stroke="black" d="M133.21,-34C156.35,-34 182.76,-34 207.47,-34"/>
<polygon fill="black" stroke="black" points="207.57,-37.5 217.57,-34 207.57,-30.5 207.57,-37.5"/>
<text text-anchor="middle" x="165" y="-36.8" font-family="Sans" font-size="9.00"> holds </text>
</g>
<!-- nodes -->
<g id="node2" class="node">
<title>nodes</title>
<ellipse fill="none" stroke="black" cx="650.12" cy="-126" rx="87.33" ry="18"/>
<text text-anchor="middle" x="650.12" y="-122.9" font-family="Verdana" font-size="12.00">Nodes (list of Node)</text>
</g>
<!-- Inputs -->
<g id="node3" class="node">
<title>Inputs</title>
<ellipse fill="none" stroke="black" cx="296.73" cy="-250" rx="93.64" ry="18"/>
<text text-anchor="middle" x="296.73" y="-246.9" font-family="Verdana" font-size="12.00">Inputs (list of Socket)</text>
</g>
<!-- Outputs -->
<g id="node4" class="node">
<title>Outputs</title>
<ellipse fill="none" stroke="black" cx="296.73" cy="-196" rx="99.95" ry="18"/>
<text text-anchor="middle" x="296.73" y="-192.9" font-family="Verdana" font-size="12.00">Outputs (list of Socket)</text>
</g>
<!-- edges -->
<g id="node5" class="node">
<title>edges</title>
<ellipse fill="none" stroke="black" cx="650.12" cy="-72" rx="85.63" ry="18"/>
<text text-anchor="middle" x="650.12" y="-68.9" font-family="Verdana" font-size="12.00">Edges (list of Edge)</text>
</g>
<!-- StartSocket -->
<g id="node6" class="node">
<title>StartSocket</title>
<ellipse fill="none" stroke="black" cx="296.73" cy="-358" rx="56.04" ry="18"/>
<text text-anchor="middle" x="296.73" y="-354.9" font-family="Verdana" font-size="12.00">Start socket</text>
</g>
<!-- EndSocket -->
<g id="node7" class="node">
<title>EndSocket</title>
<ellipse fill="none" stroke="black" cx="296.73" cy="-304" rx="51.19" ry="18"/>
<text text-anchor="middle" x="296.73" y="-300.9" font-family="Verdana" font-size="12.00">End socket</text>
</g>
<!-- Scene -->
<g id="node9" class="node">
<title>Scene</title>
<ellipse fill="none" stroke="black" cx="493.08" cy="-72" rx="32.75" ry="18"/>
<text text-anchor="middle" x="493.08" y="-68.9" font-family="Verdana" font-size="12.00">Scene</text>
</g>
<!-- NodeEditorWidget&#45;&gt;Scene -->
<g id="edge2" class="edge">
<title>NodeEditorWidget&#45;&gt;Scene</title>
<path fill="none" stroke="black" d="M357.09,-45.61C387.88,-51.63 424.66,-58.82 452.05,-64.17"/>
<polygon fill="black" stroke="black" points="451.57,-67.65 462.05,-66.13 452.91,-60.78 451.57,-67.65"/>
<text text-anchor="middle" x="428.45" y="-64.8" font-family="Sans" font-size="9.00"> holds </text>
</g>
<!-- View -->
<g id="node10" class="node">
<title>View</title>
<ellipse fill="none" stroke="black" cx="493.08" cy="-18" rx="28.14" ry="18"/>
<text text-anchor="middle" x="493.08" y="-14.9" font-family="Verdana" font-size="12.00">View</text>
</g>
<!-- NodeEditorWidget&#45;&gt;View -->
<g id="edge3" class="edge">
<title>NodeEditorWidget&#45;&gt;View</title>
<path fill="none" stroke="black" d="M371.2,-27.95C399.54,-25.62 430.74,-23.05 454.34,-21.11"/>
<polygon fill="black" stroke="black" points="454.94,-24.57 464.62,-20.26 454.36,-17.59 454.94,-24.57"/>
</g>
<!-- Scene&#45;&gt;nodes -->
<g id="edge4" class="edge">
<title>Scene&#45;&gt;nodes</title>
<path fill="none" stroke="black" d="M519.66,-82.57C532.49,-87.75 548.33,-93.94 562.7,-99 571.41,-102.07 580.67,-105.15 589.78,-108.08"/>
<polygon fill="black" stroke="black" points="588.97,-111.5 599.56,-111.19 591.09,-104.82 588.97,-111.5"/>
</g>
<!-- Scene&#45;&gt;edges -->
<g id="edge5" class="edge">
<title>Scene&#45;&gt;edges</title>
<path fill="none" stroke="black" d="M525.82,-72C534.4,-72 544.13,-72 554.28,-72"/>
<polygon fill="black" stroke="black" points="554.55,-75.5 564.55,-72 554.55,-68.5 554.55,-75.5"/>
</g>
<!-- grScene -->
<g id="node11" class="node">
<title>grScene</title>
<ellipse fill="none" stroke="black" cx="650.12" cy="-18" rx="40.03" ry="18"/>
<text text-anchor="middle" x="650.12" y="-14.9" font-family="Verdana" font-size="12.00">grScene</text>
</g>
<!-- Scene&#45;&gt;grScene -->
<g id="edge6" class="edge">
<title>Scene&#45;&gt;grScene</title>
<path fill="none" stroke="black" d="M519.66,-61.43C532.49,-56.25 548.33,-50.06 562.7,-45 576.78,-40.04 592.3,-35.04 606.26,-30.72"/>
<polygon fill="black" stroke="black" points="607.57,-33.98 616.11,-27.7 605.52,-27.29 607.57,-33.98"/>
</g>
<!-- Node -->
<g id="node12" class="node">
<title>Node</title>
<ellipse fill="none" stroke="black" cx="66.5" cy="-169" rx="29.6" ry="18"/>
<text text-anchor="middle" x="66.5" y="-165.9" font-family="Verdana" font-size="12.00">Node</text>
</g>
<!-- Node&#45;&gt;Inputs -->
<g id="edge9" class="edge">
<title>Node&#45;&gt;Inputs</title>
<path fill="none" stroke="black" d="M90.55,-179.67C116.18,-191.28 158.99,-209.94 197,-223 207.29,-226.54 218.31,-229.93 229.12,-233.04"/>
<polygon fill="black" stroke="black" points="228.39,-236.47 238.96,-235.81 230.29,-229.73 228.39,-236.47"/>
</g>
<!-- Node&#45;&gt;Outputs -->
<g id="edge10" class="edge">
<title>Node&#45;&gt;Outputs</title>
<path fill="none" stroke="black" d="M95.94,-172.36C122.71,-175.53 164.29,-180.45 202.6,-184.98"/>
<polygon fill="black" stroke="black" points="202.44,-188.49 212.78,-186.19 203.26,-181.54 202.44,-188.49"/>
</g>
<!-- grNode -->
<g id="node13" class="node">
<title>grNode</title>
<ellipse fill="none" stroke="black" cx="296.73" cy="-142" rx="36.87" ry="18"/>
<text text-anchor="middle" x="296.73" y="-138.9" font-family="Verdana" font-size="12.00">grNode</text>
</g>
<!-- Node&#45;&gt;grNode -->
<g id="edge7" class="edge">
<title>Node&#45;&gt;grNode</title>
<path fill="none" stroke="black" d="M95.94,-165.64C134.71,-161.05 204.58,-152.78 250.55,-147.34"/>
<polygon fill="black" stroke="black" points="251.03,-150.81 260.55,-146.16 250.21,-143.86 251.03,-150.81"/>
</g>
<!-- Content -->
<g id="node14" class="node">
<title>Content</title>
<ellipse fill="none" stroke="black" cx="296.73" cy="-88" rx="40.03" ry="18"/>
<text text-anchor="middle" x="296.73" y="-84.9" font-family="Verdana" font-size="12.00">Content</text>
</g>
<!-- Node&#45;&gt;Content -->
<g id="edge8" class="edge">
<title>Node&#45;&gt;Content</title>
<path fill="none" stroke="black" d="M90.55,-158.33C116.18,-146.72 158.99,-128.06 197,-115 214.56,-108.97 234.23,-103.36 251.37,-98.84"/>
<polygon fill="black" stroke="black" points="252.33,-102.2 261.13,-96.3 250.57,-95.43 252.33,-102.2"/>
</g>
<!-- Edge -->
<g id="node15" class="node">
<title>Edge</title>
<ellipse fill="none" stroke="black" cx="66.5" cy="-331" rx="28.87" ry="18"/>
<text text-anchor="middle" x="66.5" y="-327.9" font-family="Verdana" font-size="12.00">Edge</text>
</g>
<!-- Edge&#45;&gt;StartSocket -->
<g id="edge11" class="edge">
<title>Edge&#45;&gt;StartSocket</title>
<path fill="none" stroke="black" d="M95.03,-334.26C129.2,-338.3 188.49,-345.31 233.8,-350.67"/>
<polygon fill="black" stroke="black" points="233.48,-354.16 243.82,-351.86 234.3,-347.21 233.48,-354.16"/>
</g>
<!-- Edge&#45;&gt;EndSocket -->
<g id="edge12" class="edge">
<title>Edge&#45;&gt;EndSocket</title>
<path fill="none" stroke="black" d="M95.03,-327.74C130.19,-323.58 191.95,-316.28 237.71,-310.86"/>
<polygon fill="black" stroke="black" points="238.27,-314.32 247.79,-309.67 237.45,-307.37 238.27,-314.32"/>
</g>
</g>
</svg>
