<?xml version="1.0" encoding="UTF-8" standalone="no"?>
<!DOCTYPE svg PUBLIC "-//W3C//DTD SVG 1.1//EN"
 "http://www.w3.org/Graphics/SVG/1.1/DTD/svg11.dtd">
<!-- Generated by graphviz version 2.44.1 (20200629.0846)
 -->
<!-- Title: sphinx&#45;ext&#45;graphviz Pages: 1 -->
<svg width="432pt" height="157pt"
 viewBox="0.00 0.00 432.00 156.82" xmlns="http://www.w3.org/2000/svg" xmlns:xlink="http://www.w3.org/1999/xlink">
<g id="graph0" class="graph" transform="scale(0.57 0.57) rotate(0) translate(4 272)">
<title>sphinx&#45;ext&#45;graphviz</title>
<polygon fill="white" stroke="transparent" points="-4,4 -4,-272 756.3,-272 756.3,4 -4,4"/>
<!-- NodeWindowEditor -->
<g id="node1" class="node">
<title>NodeWindowEditor</title>
<polygon fill="none" stroke="black" points="133,-52 130,-56 109,-56 106,-52 0,-52 0,-16 133,-16 133,-52"/>
<text text-anchor="middle" x="66.5" y="-30.9" font-family="Verdana" font-size="12.00">NodeEditorWindow</text>
</g>
<!-- NodeEditorWidget -->
<g id="node6" class="node">
<title>NodeEditorWidget</title>
<ellipse fill="none" stroke="black" cx="296.73" cy="-34" rx="78.59" ry="18"/>
<text text-anchor="middle" x="296.73" y="-30.9" font-family="Verdana" font-size="12.00">NodeEditorWidget</text>
</g>
<!-- NodeWindowEditor&#45;&gt;NodeEditorWidget -->
<g id="edge1" class="edge">
<title>NodeWindowEditor&#45;&gt;NodeEditorWidget</title>
<path fill="none" stroke="black" d="M133.21,-34C156.35,-34 182.76,-34 207.47,-34"/>
<polygon fill="black" stroke="black" points="207.57,-37.5 217.57,-34 207.57,-30.5 207.57,-37.5"/>
<text text-anchor="middle" x="165" y="-36.8" font-family="Sans" font-size="9.00"> holds </text>
</g>
<!-- nodes -->
<g id="node2" class="node">
<title>nodes</title>
<ellipse fill="none" stroke="black" cx="664.89" cy="-99" rx="87.33" ry="18"/>
<text text-anchor="middle" x="664.89" y="-95.9" font-family="Verdana" font-size="12.00">Nodes (list of Node)</text>
</g>
<!-- edges -->
<g id="node3" class="node">
<title>edges</title>
<ellipse fill="none" stroke="black" cx="664.89" cy="-45" rx="85.63" ry="18"/>
<text text-anchor="middle" x="664.89" y="-41.9" font-family="Verdana" font-size="12.00">Edges (list of Edge)</text>
</g>
<!-- Inputs -->
<g id="node4" class="node">
<title>Inputs</title>
<ellipse fill="none" stroke="black" cx="296.73" cy="-250" rx="93.64" ry="18"/>
<text text-anchor="middle" x="296.73" y="-246.9" font-family="Verdana" font-size="12.00">Inputs (list of Socket)</text>
</g>
<!-- Outputs -->
<g id="node5" class="node">
<title>Outputs</title>
<ellipse fill="none" stroke="black" cx="296.73" cy="-196" rx="99.95" ry="18"/>
<text text-anchor="middle" x="296.73" y="-192.9" font-family="Verdana" font-size="12.00">Outputs (list of Socket)</text>
</g>
<!-- Scene -->
<g id="node7" class="node">
<title>Scene</title>
<ellipse fill="none" stroke="black" cx="500.46" cy="-72" rx="32.75" ry="18"/>
<text text-anchor="middle" x="500.46" y="-68.9" font-family="Verdana" font-size="12.00">Scene</text>
</g>
<!-- NodeEditorWidget&#45;&gt;Scene -->
<g id="edge2" class="edge">
<title>NodeEditorWidget&#45;&gt;Scene</title>
<path fill="none" stroke="black" d="M357.98,-45.35C390.66,-51.5 430.16,-58.95 459.11,-64.4"/>
<polygon fill="black" stroke="black" points="458.79,-67.9 469.27,-66.31 460.09,-61.02 458.79,-67.9"/>
<text text-anchor="middle" x="428.45" y="-63.8" font-family="Sans" font-size="9.00"> holds </text>
</g>
<!-- grScene -->
<g id="node8" class="node">
<title>grScene</title>
<ellipse fill="none" stroke="black" cx="500.46" cy="-18" rx="40.03" ry="18"/>
<text text-anchor="middle" x="500.46" y="-14.9" font-family="Verdana" font-size="12.00">grScene</text>
</g>
<!-- NodeEditorWidget&#45;&gt;grScene -->
<g id="edge3" class="edge">
<title>NodeEditorWidget&#45;&gt;grScene</title>
<path fill="none" stroke="black" d="M371.41,-28.16C397.79,-26.06 426.84,-23.76 450.6,-21.88"/>
<polygon fill="black" stroke="black" points="451.08,-25.35 460.77,-21.07 450.53,-18.37 451.08,-25.35"/>
<text text-anchor="middle" x="428.45" y="-27.8" font-family="Sans" font-size="9.00"> holds </text>
</g>
<!-- Scene&#45;&gt;nodes -->
<g id="edge4" class="edge">
<title>Scene&#45;&gt;nodes</title>
<path fill="none" stroke="black" d="M532.01,-77.08C547.51,-79.65 567.1,-82.91 586.41,-86.12"/>
<polygon fill="black" stroke="black" points="586.02,-89.6 596.46,-87.79 587.17,-82.7 586.02,-89.6"/>
</g>
<!-- Scene&#45;&gt;edges -->
<g id="edge5" class="edge">
<title>Scene&#45;&gt;edges</title>
<path fill="none" stroke="black" d="M532.01,-66.92C547.74,-64.31 567.68,-60.99 587.26,-57.74"/>
<polygon fill="black" stroke="black" points="587.85,-61.19 597.14,-56.1 586.7,-54.28 587.85,-61.19"/>
</g>
<!-- Node -->
<g id="node9" class="node">
<title>Node</title>
<ellipse fill="none" stroke="black" cx="66.5" cy="-169" rx="29.6" ry="18"/>
<text text-anchor="middle" x="66.5" y="-165.9" font-family="Verdana" font-size="12.00">Node</text>
</g>
<!-- Node&#45;&gt;Inputs -->
<g id="edge8" class="edge">
<title>Node&#45;&gt;Inputs</title>
<path fill="none" stroke="black" d="M90.55,-179.67C116.18,-191.28 158.99,-209.94 197,-223 207.29,-226.54 218.31,-229.93 229.12,-233.04"/>
<polygon fill="black" stroke="black" points="228.39,-236.47 238.96,-235.81 230.29,-229.73 228.39,-236.47"/>
</g>
<!-- Node&#45;&gt;Outputs -->
<g id="edge9" class="edge">
<title>Node&#45;&gt;Outputs</title>
<path fill="none" stroke="black" d="M95.94,-172.36C122.71,-175.53 164.29,-180.45 202.6,-184.98"/>
<polygon fill="black" stroke="black" points="202.44,-188.49 212.78,-186.19 203.26,-181.54 202.44,-188.49"/>
</g>
<!-- grNode -->
<g id="node10" class="node">
<title>grNode</title>
<ellipse fill="none" stroke="black" cx="296.73" cy="-142" rx="36.87" ry="18"/>
<text text-anchor="middle" x="296.73" y="-138.9" font-family="Verdana" font-size="12.00">grNode</text>
</g>
<!-- Node&#45;&gt;grNode -->
<g id="edge6" class="edge">
<title>Node&#45;&gt;grNode</title>
<path fill="none" stroke="black" d="M95.94,-165.64C134.71,-161.05 204.58,-152.78 250.55,-147.34"/>
<polygon fill="black" stroke="black" points="251.03,-150.81 260.55,-146.16 250.21,-143.86 251.03,-150.81"/>
</g>
<!-- Content -->
<g id="node11" class="node">
<title>Content</title>
<ellipse fill="none" stroke="black" cx="296.73" cy="-88" rx="40.03" ry="18"/>
<text text-anchor="middle" x="296.73" y="-84.9" font-family="Verdana" font-size="12.00">Content</text>
</g>
<!-- Node&#45;&gt;Content -->
<g id="edge7" class="edge">
<title>Node&#45;&gt;Content</title>
<path fill="none" stroke="black" d="M90.55,-158.33C116.18,-146.72 158.99,-128.06 197,-115 214.56,-108.97 234.23,-103.36 251.37,-98.84"/>
<polygon fill="black" stroke="black" points="252.33,-102.2 261.13,-96.3 250.57,-95.43 252.33,-102.2"/>
</g>
</g>
</svg>
