<?xml version="1.0" encoding="UTF-8" standalone="no"?>
<!DOCTYPE svg PUBLIC "-//W3C//DTD SVG 1.1//EN"
 "http://www.w3.org/Graphics/SVG/1.1/DTD/svg11.dtd">
<!-- Generated by graphviz version 2.44.1 (20200629.0846)
 -->
<!-- Title: sphinx&#45;ext&#45;graphviz Pages: 1 -->
<svg width="432pt" height="123pt"
 viewBox="0.00 0.00 432.00 122.81" xmlns="http://www.w3.org/2000/svg" xmlns:xlink="http://www.w3.org/1999/xlink">
<g id="graph0" class="graph" transform="scale(0.65 0.65) rotate(0) translate(4 186)">
<title>sphinx&#45;ext&#45;graphviz</title>
<polygon fill="white" stroke="transparent" points="-4,4 -4,-186 664.34,-186 664.34,4 -4,4"/>
<!-- sphinx -->
<g id="node1" class="node">
<title>sphinx</title>
<g id="a_node1"><a xlink:href="https://www.sphinx-doc.org/" xlink:title="Sphinx" target="_blank">
<polygon fill="none" stroke="black" points="110.37,-47 53.37,-47 53.37,-43 49.37,-43 49.37,-39 53.37,-39 53.37,-19 49.37,-19 49.37,-15 53.37,-15 53.37,-11 110.37,-11 110.37,-47"/>
<polyline fill="none" stroke="black" points="53.37,-43 57.37,-43 57.37,-39 53.37,-39 "/>
<polyline fill="none" stroke="black" points="53.37,-19 57.37,-19 57.37,-15 53.37,-15 "/>
<text text-anchor="middle" x="81.87" y="-25.9" font-family="Verdana" font-size="12.00">Sphinx</text>
</a>
</g>
</g>
<!-- dot -->
<g id="node2" class="node">
<title>dot</title>
<g id="a_node2"><a xlink:href="https://www.graphviz.org/" xlink:title="GraphViz" target="_blank">
<polygon fill="none" stroke="black" points="342.04,-70 271.04,-70 271.04,-66 267.04,-66 267.04,-62 271.04,-62 271.04,-42 267.04,-42 267.04,-38 271.04,-38 271.04,-34 342.04,-34 342.04,-70"/>
<polyline fill="none" stroke="black" points="271.04,-66 275.04,-66 275.04,-62 271.04,-62 "/>
<polyline fill="none" stroke="black" points="271.04,-42 275.04,-42 275.04,-38 271.04,-38 "/>
<text text-anchor="middle" x="306.54" y="-48.9" font-family="Verdana" font-size="12.00">GraphViz</text>
</a>
</g>
</g>
<!-- sphinx&#45;&gt;dot -->
<g id="edge4" class="edge">
<title>sphinx&#45;&gt;dot</title>
<path fill="none" stroke="black" stroke-dasharray="5,2" d="M110.62,-31.87C151.19,-36.06 226.66,-43.85 270.84,-48.42"/>
<text text-anchor="middle" x="195.75" y="-44.8" font-family="Sans" font-size="9.00"> call </text>
</g>
<!-- html_files -->
<g id="node5" class="node">
<title>html_files</title>
<polygon fill="yellow" stroke="black" points="660.34,-36 657.34,-40 636.34,-40 633.34,-36 577.34,-36 577.34,0 660.34,0 660.34,-36"/>
<text text-anchor="middle" x="618.84" y="-14.9" font-family="Verdana" font-size="12.00">HTML Files</text>
</g>
<!-- sphinx&#45;&gt;html_files -->
<g id="edge6" class="edge">
<title>sphinx&#45;&gt;html_files</title>
<path fill="none" stroke="black" d="M110.37,-28.16C139.51,-27.29 186.87,-25.93 227.75,-25 349.5,-22.23 492.64,-19.9 567.08,-18.75"/>
<polygon fill="black" stroke="black" points="567.17,-22.25 577.12,-18.6 567.07,-15.25 567.17,-22.25"/>
<text text-anchor="middle" x="420.34" y="-24.8" font-family="Sans" font-size="9.00"> render </text>
</g>
<!-- svg_file -->
<g id="node4" class="node">
<title>svg_file</title>
<polygon fill="#3333ff" stroke="black" points="534.34,-70 455.34,-70 455.34,-34 540.34,-34 540.34,-64 534.34,-70"/>
<polyline fill="none" stroke="black" points="534.34,-70 534.34,-64 "/>
<polyline fill="none" stroke="black" points="540.34,-64 534.34,-64 "/>
<text text-anchor="middle" x="497.84" y="-48.9" font-family="Verdana" font-size="12.00" fill="white">SVG Image</text>
</g>
<!-- dot&#45;&gt;svg_file -->
<g id="edge5" class="edge">
<title>dot&#45;&gt;svg_file</title>
<path fill="none" stroke="black" d="M342.26,-52C370.96,-52 412.15,-52 444.8,-52"/>
<polygon fill="black" stroke="black" points="445.07,-55.5 455.07,-52 445.07,-48.5 445.07,-55.5"/>
<text text-anchor="middle" x="420.34" y="-54.8" font-family="Sans" font-size="9.00"> draw </text>
</g>
<!-- docs -->
<g id="node3" class="node">
<title>docs</title>
<polygon fill="green" stroke="black" points="122.87,-114 119.87,-118 98.87,-118 95.87,-114 40.87,-114 40.87,-78 122.87,-78 122.87,-114"/>
<text text-anchor="middle" x="81.87" y="-92.9" font-family="Verdana" font-size="12.00">Docs (.rst)</text>
</g>
<!-- svg_file&#45;&gt;html_files -->
<g id="edge7" class="edge">
<title>svg_file&#45;&gt;html_files</title>
<path fill="none" stroke="black" stroke-dasharray="5,2" d="M540.46,-40.11C549.22,-37.61 558.55,-34.94 567.59,-32.36"/>
<polygon fill="black" stroke="black" points="568.59,-35.71 577.24,-29.6 566.67,-28.98 568.59,-35.71"/>
</g>
<!-- NodeWindowEditor -->
<g id="node6" class="node">
<title>NodeWindowEditor</title>
<ellipse fill="none" stroke="black" cx="81.87" cy="-157" rx="81.75" ry="18"/>
<text text-anchor="middle" x="81.87" y="-153.9" font-family="Verdana" font-size="12.00">NodeWindowEditor</text>
</g>
<!-- NodeEditorWidget -->
<g id="node7" class="node">
<title>NodeEditorWidget</title>
<ellipse fill="none" stroke="black" cx="306.54" cy="-157" rx="78.59" ry="18"/>
<text text-anchor="middle" x="306.54" y="-153.9" font-family="Verdana" font-size="12.00">NodeEditorWidget</text>
</g>
<!-- NodeWindowEditor&#45;&gt;NodeEditorWidget -->
<g id="edge1" class="edge">
<title>NodeWindowEditor&#45;&gt;NodeEditorWidget</title>
<path fill="none" stroke="black" d="M163.89,-157C181.25,-157 199.67,-157 217.29,-157"/>
<polygon fill="black" stroke="black" points="217.56,-160.5 227.56,-157 217.56,-153.5 217.56,-160.5"/>
<text text-anchor="middle" x="195.75" y="-159.8" font-family="Sans" font-size="9.00"> holds </text>
</g>
<!-- Scene -->
<g id="node8" class="node">
<title>Scene</title>
<ellipse fill="none" stroke="black" cx="497.84" cy="-164" rx="32.75" ry="18"/>
<text text-anchor="middle" x="497.84" y="-160.9" font-family="Verdana" font-size="12.00">Scene</text>
</g>
<!-- NodeEditorWidget&#45;&gt;Scene -->
<g id="edge2" class="edge">
<title>NodeEditorWidget&#45;&gt;Scene</title>
<path fill="none" stroke="black" d="M384.53,-159.85C408.7,-160.74 434.46,-161.69 455.21,-162.46"/>
<polygon fill="black" stroke="black" points="455.14,-165.96 465.26,-162.83 455.4,-158.97 455.14,-165.96"/>
<text text-anchor="middle" x="420.34" y="-163.8" font-family="Sans" font-size="9.00"> holds </text>
</g>
<!-- grScene -->
<g id="node9" class="node">
<title>grScene</title>
<ellipse fill="none" stroke="black" cx="497.84" cy="-110" rx="40.03" ry="18"/>
<text text-anchor="middle" x="497.84" y="-106.9" font-family="Verdana" font-size="12.00">grScene</text>
</g>
<!-- NodeEditorWidget&#45;&gt;grScene -->
<g id="edge3" class="edge">
<title>NodeEditorWidget&#45;&gt;grScene</title>
<path fill="none" stroke="black" d="M360.52,-143.85C389.55,-136.64 425.11,-127.81 452.64,-120.97"/>
<polygon fill="black" stroke="black" points="453.52,-124.36 462.38,-118.55 451.84,-117.57 453.52,-124.36"/>
<text text-anchor="middle" x="420.34" y="-134.8" font-family="Sans" font-size="9.00"> holds </text>
</g>
</g>
</svg>
