<?xml version="1.0" encoding="UTF-8" standalone="no"?>
<!DOCTYPE svg PUBLIC "-//W3C//DTD SVG 1.1//EN"
 "http://www.w3.org/Graphics/SVG/1.1/DTD/svg11.dtd">
<!-- Generated by graphviz version 2.44.1 (20200629.0846)
 -->
<!-- Title: sphinx&#45;ext&#45;graphviz Pages: 1 -->
<svg width="209pt" height="98pt"
 viewBox="0.00 0.00 208.98 98.00" xmlns="http://www.w3.org/2000/svg" xmlns:xlink="http://www.w3.org/1999/xlink">
<g id="graph0" class="graph" transform="scale(1 1) rotate(0) translate(4 94)">
<title>sphinx&#45;ext&#45;graphviz</title>
<polygon fill="white" stroke="transparent" points="-4,4 -4,-94 204.98,-94 204.98,4 -4,4"/>
<!-- Edge -->
<g id="node1" class="node">
<title>Edge</title>
<ellipse fill="none" stroke="black" cx="28.93" cy="-45" rx="28.87" ry="18"/>
<text text-anchor="middle" x="28.93" y="-41.9" font-family="Verdana" font-size="12.00">Edge</text>
</g>
<!-- StartSocket -->
<g id="node2" class="node">
<title>StartSocket</title>
<ellipse fill="none" stroke="black" cx="147.42" cy="-72" rx="53.61" ry="18"/>
<text text-anchor="middle" x="147.42" y="-68.9" font-family="Verdana" font-size="12.00">StartSocket</text>
</g>
<!-- Edge&#45;&gt;StartSocket -->
<g id="edge1" class="edge">
<title>Edge&#45;&gt;StartSocket</title>
<path fill="none" stroke="black" d="M56.37,-51.13C67.17,-53.63 80.08,-56.62 92.71,-59.55"/>
<polygon fill="black" stroke="black" points="92.2,-63.02 102.73,-61.87 93.78,-56.21 92.2,-63.02"/>
</g>
<!-- EndSocket -->
<g id="node3" class="node">
<title>EndSocket</title>
<ellipse fill="none" stroke="black" cx="147.42" cy="-18" rx="49.5" ry="18"/>
<text text-anchor="middle" x="147.42" y="-14.9" font-family="Verdana" font-size="12.00">EndSocket</text>
</g>
<!-- Edge&#45;&gt;EndSocket -->
<g id="edge2" class="edge">
<title>Edge&#45;&gt;EndSocket</title>
<path fill="none" stroke="black" d="M56.37,-38.87C67.92,-36.2 81.88,-32.96 95.33,-29.84"/>
<polygon fill="black" stroke="black" points="96.51,-33.16 105.46,-27.49 94.93,-26.34 96.51,-33.16"/>
</g>
</g>
</svg>
