<?xml version="1.0" encoding="UTF-8" standalone="no"?>
<!DOCTYPE svg PUBLIC "-//W3C//DTD SVG 1.1//EN"
 "http://www.w3.org/Graphics/SVG/1.1/DTD/svg11.dtd">
<!-- Generated by graphviz version 2.44.1 (20200629.0846)
 -->
<!-- Title: sphinx&#45;ext&#45;graphviz Pages: 1 -->
<svg width="303pt" height="206pt"
 viewBox="0.00 0.00 302.55 206.00" xmlns="http://www.w3.org/2000/svg" xmlns:xlink="http://www.w3.org/1999/xlink">
<g id="graph0" class="graph" transform="scale(1 1) rotate(0) translate(4 202)">
<title>sphinx&#45;ext&#45;graphviz</title>
<polygon fill="white" stroke="transparent" points="-4,4 -4,-202 298.55,-202 298.55,4 -4,4"/>
<!-- Inputs -->
<g id="node1" class="node">
<title>Inputs</title>
<ellipse fill="none" stroke="black" cx="194.82" cy="-180" rx="93.64" ry="18"/>
<text text-anchor="middle" x="194.82" y="-176.9" font-family="Verdana" font-size="12.00">Inputs (list of Socket)</text>
</g>
<!-- Outputs -->
<g id="node2" class="node">
<title>Outputs</title>
<ellipse fill="none" stroke="black" cx="194.82" cy="-126" rx="99.95" ry="18"/>
<text text-anchor="middle" x="194.82" y="-122.9" font-family="Verdana" font-size="12.00">Outputs (list of Socket)</text>
</g>
<!-- Node -->
<g id="node3" class="node">
<title>Node</title>
<ellipse fill="none" stroke="black" cx="29.55" cy="-99" rx="29.6" ry="18"/>
<text text-anchor="middle" x="29.55" y="-95.9" font-family="Verdana" font-size="12.00">Node</text>
</g>
<!-- Node&#45;&gt;Inputs -->
<g id="edge3" class="edge">
<title>Node&#45;&gt;Inputs</title>
<path fill="none" stroke="black" d="M45.09,-114.37C57.35,-126.5 75.93,-142.98 95.1,-153 103.08,-157.17 111.76,-160.75 120.57,-163.81"/>
<polygon fill="black" stroke="black" points="119.55,-167.16 130.14,-166.92 121.71,-160.5 119.55,-167.16"/>
</g>
<!-- Node&#45;&gt;Outputs -->
<g id="edge4" class="edge">
<title>Node&#45;&gt;Outputs</title>
<path fill="none" stroke="black" d="M58.25,-103.58C72.89,-106 91.72,-109.12 110.67,-112.25"/>
<polygon fill="black" stroke="black" points="110.12,-115.71 120.56,-113.88 111.26,-108.8 110.12,-115.71"/>
</g>
<!-- grNode -->
<g id="node4" class="node">
<title>grNode</title>
<ellipse fill="none" stroke="black" cx="194.82" cy="-72" rx="36.87" ry="18"/>
<text text-anchor="middle" x="194.82" y="-68.9" font-family="Verdana" font-size="12.00">grNode</text>
</g>
<!-- Node&#45;&gt;grNode -->
<g id="edge1" class="edge">
<title>Node&#45;&gt;grNode</title>
<path fill="none" stroke="black" d="M58.25,-94.42C83.23,-90.29 120.42,-84.14 149.53,-79.32"/>
<polygon fill="black" stroke="black" points="150.16,-82.77 159.46,-77.68 149.02,-75.86 150.16,-82.77"/>
</g>
<!-- Content -->
<g id="node5" class="node">
<title>Content</title>
<ellipse fill="none" stroke="black" cx="194.82" cy="-18" rx="40.03" ry="18"/>
<text text-anchor="middle" x="194.82" y="-14.9" font-family="Verdana" font-size="12.00">Content</text>
</g>
<!-- Node&#45;&gt;Content -->
<g id="edge2" class="edge">
<title>Node&#45;&gt;Content</title>
<path fill="none" stroke="black" d="M45.09,-83.63C57.35,-71.5 75.93,-55.02 95.1,-45 111.01,-36.68 129.73,-30.72 146.58,-26.56"/>
<polygon fill="black" stroke="black" points="147.83,-29.86 156.78,-24.19 146.25,-23.04 147.83,-29.86"/>
</g>
</g>
</svg>
