<?xml version="1.0" encoding="UTF-8" standalone="no"?>
<!DOCTYPE svg PUBLIC "-//W3C//DTD SVG 1.1//EN"
 "http://www.w3.org/Graphics/SVG/1.1/DTD/svg11.dtd">
<!-- Generated by graphviz version 2.44.1 (20200629.0846)
 -->
<!-- Title: sphinx&#45;ext&#45;graphviz Pages: 1 -->
<svg width="432pt" height="93pt"
 viewBox="0.00 0.00 432.00 93.32" xmlns="http://www.w3.org/2000/svg" xmlns:xlink="http://www.w3.org/1999/xlink">
<g id="graph0" class="graph" transform="scale(0.61 0.61) rotate(0) translate(4 148)">
<title>sphinx&#45;ext&#45;graphviz</title>
<polygon fill="white" stroke="transparent" points="-4,4 -4,-148 699.67,-148 699.67,4 -4,4"/>
<!-- NodeWindowEditor -->
<g id="node1" class="node">
<title>NodeWindowEditor</title>
<polygon fill="none" stroke="black" points="133,-52 130,-56 109,-56 106,-52 0,-52 0,-16 133,-16 133,-52"/>
<text text-anchor="middle" x="66.5" y="-30.9" font-family="Verdana" font-size="12.00">NodeEditorWindow</text>
</g>
<!-- NodeEditorWidget -->
<g id="node4" class="node">
<title>NodeEditorWidget</title>
<ellipse fill="none" stroke="black" cx="275.8" cy="-34" rx="78.59" ry="18"/>
<text text-anchor="middle" x="275.8" y="-30.9" font-family="Verdana" font-size="12.00">NodeEditorWidget</text>
</g>
<!-- NodeWindowEditor&#45;&gt;NodeEditorWidget -->
<g id="edge1" class="edge">
<title>NodeWindowEditor&#45;&gt;NodeEditorWidget</title>
<path fill="none" stroke="black" d="M133.09,-34C150.12,-34 168.75,-34 186.74,-34"/>
<polygon fill="black" stroke="black" points="186.94,-37.5 196.94,-34 186.94,-30.5 186.94,-37.5"/>
<text text-anchor="middle" x="165" y="-36.8" font-family="Sans" font-size="9.00"> holds </text>
</g>
<!-- nodes -->
<g id="node2" class="node">
<title>nodes</title>
<ellipse fill="none" stroke="black" cx="608.26" cy="-126" rx="87.33" ry="18"/>
<text text-anchor="middle" x="608.26" y="-122.9" font-family="Verdana" font-size="12.00">Nodes (list of Node)</text>
</g>
<!-- edges -->
<g id="node3" class="node">
<title>edges</title>
<ellipse fill="none" stroke="black" cx="608.26" cy="-72" rx="85.63" ry="18"/>
<text text-anchor="middle" x="608.26" y="-68.9" font-family="Verdana" font-size="12.00">Edges (list of Edge)</text>
</g>
<!-- Scene -->
<g id="node5" class="node">
<title>Scene</title>
<ellipse fill="none" stroke="black" cx="451.22" cy="-72" rx="32.75" ry="18"/>
<text text-anchor="middle" x="451.22" y="-68.9" font-family="Verdana" font-size="12.00">Scene</text>
</g>
<!-- NodeEditorWidget&#45;&gt;Scene -->
<g id="edge2" class="edge">
<title>NodeEditorWidget&#45;&gt;Scene</title>
<path fill="none" stroke="black" d="M333.58,-46.44C358.76,-51.96 387.79,-58.32 410.58,-63.32"/>
<polygon fill="black" stroke="black" points="410.07,-66.79 420.58,-65.51 411.56,-59.95 410.07,-66.79"/>
<text text-anchor="middle" x="386.59" y="-62.8" font-family="Sans" font-size="9.00"> holds </text>
</g>
<!-- View -->
<g id="node6" class="node">
<title>View</title>
<ellipse fill="none" stroke="black" cx="451.22" cy="-18" rx="28.14" ry="18"/>
<text text-anchor="middle" x="451.22" y="-14.9" font-family="Verdana" font-size="12.00">View</text>
</g>
<!-- NodeEditorWidget&#45;&gt;View -->
<g id="edge3" class="edge">
<title>NodeEditorWidget&#45;&gt;View</title>
<path fill="none" stroke="black" d="M349.09,-27.33C370.94,-25.31 394.05,-23.18 412.66,-21.47"/>
<polygon fill="black" stroke="black" points="413.13,-24.94 422.77,-20.53 412.49,-17.97 413.13,-24.94"/>
</g>
<!-- Scene&#45;&gt;nodes -->
<g id="edge4" class="edge">
<title>Scene&#45;&gt;nodes</title>
<path fill="none" stroke="black" d="M477.8,-82.57C490.63,-87.75 506.47,-93.94 520.84,-99 529.55,-102.07 538.81,-105.15 547.92,-108.08"/>
<polygon fill="black" stroke="black" points="547.11,-111.5 557.7,-111.19 549.23,-104.82 547.11,-111.5"/>
</g>
<!-- Scene&#45;&gt;edges -->
<g id="edge5" class="edge">
<title>Scene&#45;&gt;edges</title>
<path fill="none" stroke="black" d="M483.97,-72C492.54,-72 502.27,-72 512.42,-72"/>
<polygon fill="black" stroke="black" points="512.69,-75.5 522.69,-72 512.69,-68.5 512.69,-75.5"/>
</g>
<!-- grScene -->
<g id="node7" class="node">
<title>grScene</title>
<ellipse fill="none" stroke="black" cx="608.26" cy="-18" rx="40.03" ry="18"/>
<text text-anchor="middle" x="608.26" y="-14.9" font-family="Verdana" font-size="12.00">grScene</text>
</g>
<!-- Scene&#45;&gt;grScene -->
<g id="edge6" class="edge">
<title>Scene&#45;&gt;grScene</title>
<path fill="none" stroke="black" d="M477.8,-61.43C490.63,-56.25 506.47,-50.06 520.84,-45 534.92,-40.04 550.44,-35.04 564.4,-30.72"/>
<polygon fill="black" stroke="black" points="565.71,-33.98 574.25,-27.7 563.66,-27.29 565.71,-33.98"/>
</g>
</g>
</svg>
