<?xml version="1.0" encoding="UTF-8" standalone="no"?>
<!DOCTYPE svg PUBLIC "-//W3C//DTD SVG 1.1//EN"
 "http://www.w3.org/Graphics/SVG/1.1/DTD/svg11.dtd">
<!-- Generated by graphviz version 2.44.1 (20200629.0846)
 -->
<!-- Title: sphinx&#45;ext&#45;graphviz Pages: 1 -->
<svg width="432pt" height="55pt"
 viewBox="0.00 0.00 432.00 55.06" xmlns="http://www.w3.org/2000/svg" xmlns:xlink="http://www.w3.org/1999/xlink">
<g id="graph0" class="graph" transform="scale(0.71 0.71) rotate(0) translate(4 74)">
<title>sphinx&#45;ext&#45;graphviz</title>
<polygon fill="white" stroke="transparent" points="-4,4 -4,-74 608,-74 608,4 -4,4"/>
<!-- sphinx -->
<g id="node1" class="node">
<title>sphinx</title>
<g id="a_node1"><a xlink:href="https://www.sphinx-doc.org/" xlink:title="Sphinx" target="_blank">
<polygon fill="none" stroke="black" points="203,-40 146,-40 146,-36 142,-36 142,-32 146,-32 146,-12 142,-12 142,-8 146,-8 146,-4 203,-4 203,-40"/>
<polyline fill="none" stroke="black" points="146,-36 150,-36 150,-32 146,-32 "/>
<polyline fill="none" stroke="black" points="146,-12 150,-12 150,-8 146,-8 "/>
<text text-anchor="middle" x="174.5" y="-18.9" font-family="Verdana" font-size="12.00">Sphinx</text>
</a>
</g>
</g>
<!-- dot -->
<g id="node2" class="node">
<title>dot</title>
<g id="a_node2"><a xlink:href="https://www.graphviz.org/" xlink:title="GraphViz" target="_blank">
<polygon fill="none" stroke="black" points="329,-70 258,-70 258,-66 254,-66 254,-62 258,-62 258,-42 254,-42 254,-38 258,-38 258,-34 329,-34 329,-70"/>
<polyline fill="none" stroke="black" points="258,-66 262,-66 262,-62 258,-62 "/>
<polyline fill="none" stroke="black" points="258,-42 262,-42 262,-38 258,-38 "/>
<text text-anchor="middle" x="293.5" y="-48.9" font-family="Verdana" font-size="12.00">GraphViz</text>
</a>
</g>
</g>
<!-- sphinx&#45;&gt;dot -->
<g id="edge2" class="edge">
<title>sphinx&#45;&gt;dot</title>
<path fill="none" stroke="black" stroke-dasharray="5,2" d="M203.23,-29.11C219.58,-33.3 240.42,-38.65 257.85,-43.12"/>
<text text-anchor="middle" x="230.5" y="-39.8" font-family="Sans" font-size="9.00"> call </text>
</g>
<!-- html_files -->
<g id="node5" class="node">
<title>html_files</title>
<polygon fill="yellow" stroke="black" points="604,-36 601,-40 580,-40 577,-36 521,-36 521,0 604,0 604,-36"/>
<text text-anchor="middle" x="562.5" y="-14.9" font-family="Verdana" font-size="12.00">HTML Files</text>
</g>
<!-- sphinx&#45;&gt;html_files -->
<g id="edge4" class="edge">
<title>sphinx&#45;&gt;html_files</title>
<path fill="none" stroke="black" d="M203.26,-21.71C267.66,-21.04 428.03,-19.38 510.59,-18.53"/>
<polygon fill="black" stroke="black" points="510.78,-22.03 520.75,-18.42 510.71,-15.03 510.78,-22.03"/>
<text text-anchor="middle" x="364" y="-23.8" font-family="Sans" font-size="9.00"> render </text>
</g>
<!-- svg_file -->
<g id="node4" class="node">
<title>svg_file</title>
<polygon fill="#3333ff" stroke="black" points="478,-70 399,-70 399,-34 484,-34 484,-64 478,-70"/>
<polyline fill="none" stroke="black" points="478,-70 478,-64 "/>
<polyline fill="none" stroke="black" points="484,-64 478,-64 "/>
<text text-anchor="middle" x="441.5" y="-48.9" font-family="Verdana" font-size="12.00" fill="white">SVG Image</text>
</g>
<!-- dot&#45;&gt;svg_file -->
<g id="edge3" class="edge">
<title>dot&#45;&gt;svg_file</title>
<path fill="none" stroke="black" d="M329.1,-52C346.91,-52 368.98,-52 388.77,-52"/>
<polygon fill="black" stroke="black" points="388.87,-55.5 398.87,-52 388.87,-48.5 388.87,-55.5"/>
<text text-anchor="middle" x="364" y="-54.8" font-family="Sans" font-size="9.00"> draw </text>
</g>
<!-- docs -->
<g id="node3" class="node">
<title>docs</title>
<polygon fill="green" stroke="black" points="82,-40 79,-44 58,-44 55,-40 0,-40 0,-4 82,-4 82,-40"/>
<text text-anchor="middle" x="41" y="-18.9" font-family="Verdana" font-size="12.00">Docs (.rst)</text>
</g>
<!-- docs&#45;&gt;sphinx -->
<g id="edge1" class="edge">
<title>docs&#45;&gt;sphinx</title>
<path fill="none" stroke="black" d="M82.17,-22C99.02,-22 118.53,-22 135.18,-22"/>
<polygon fill="black" stroke="black" points="135.65,-25.5 145.65,-22 135.65,-18.5 135.65,-25.5"/>
<text text-anchor="middle" x="114" y="-24.8" font-family="Sans" font-size="9.00"> parse </text>
</g>
<!-- svg_file&#45;&gt;html_files -->
<g id="edge5" class="edge">
<title>svg_file&#45;&gt;html_files</title>
<path fill="none" stroke="black" stroke-dasharray="5,2" d="M484.12,-40.11C492.88,-37.61 502.21,-34.94 511.25,-32.36"/>
<polygon fill="black" stroke="black" points="512.25,-35.71 520.91,-29.6 510.33,-28.98 512.25,-35.71"/>
</g>
</g>
</svg>
