<?xml version="1.0" encoding="UTF-8" standalone="no"?>
<!DOCTYPE svg PUBLIC "-//W3C//DTD SVG 1.1//EN"
 "http://www.w3.org/Graphics/SVG/1.1/DTD/svg11.dtd">
<!-- Generated by graphviz version 2.44.1 (20200629.0846)
 -->
<!-- Title: sphinx&#45;ext&#45;graphviz Pages: 1 -->
<svg width="432pt" height="124pt"
 viewBox="0.00 0.00 432.00 123.87" xmlns="http://www.w3.org/2000/svg" xmlns:xlink="http://www.w3.org/1999/xlink">
<g id="graph0" class="graph" transform="scale(0.6 0.6) rotate(0) translate(4 202)">
<title>sphinx&#45;ext&#45;graphviz</title>
<polygon fill="white" stroke="transparent" points="-4,4 -4,-202 714.44,-202 714.44,4 -4,4"/>
<!-- NodeWindowEditor -->
<g id="node1" class="node">
<title>NodeWindowEditor</title>
<polygon fill="none" stroke="black" points="133,-179 130,-183 109,-183 106,-179 0,-179 0,-143 133,-143 133,-179"/>
<text text-anchor="middle" x="66.5" y="-157.9" font-family="Verdana" font-size="12.00">NodeEditorWindow</text>
</g>
<!-- NodeEditorWidget -->
<g id="node4" class="node">
<title>NodeEditorWidget</title>
<ellipse fill="none" stroke="black" cx="275.8" cy="-161" rx="78.59" ry="18"/>
<text text-anchor="middle" x="275.8" y="-157.9" font-family="Verdana" font-size="12.00">NodeEditorWidget</text>
</g>
<!-- NodeWindowEditor&#45;&gt;NodeEditorWidget -->
<g id="edge1" class="edge">
<title>NodeWindowEditor&#45;&gt;NodeEditorWidget</title>
<path fill="none" stroke="black" d="M133.09,-161C150.12,-161 168.75,-161 186.74,-161"/>
<polygon fill="black" stroke="black" points="186.94,-164.5 196.94,-161 186.94,-157.5 186.94,-164.5"/>
<text text-anchor="middle" x="165" y="-163.8" font-family="Sans" font-size="9.00"> holds </text>
</g>
<!-- nodes -->
<g id="node2" class="node">
<title>nodes</title>
<ellipse fill="none" stroke="black" cx="623.03" cy="-153" rx="87.33" ry="18"/>
<text text-anchor="middle" x="623.03" y="-149.9" font-family="Verdana" font-size="12.00">Nodes (list of Node)</text>
</g>
<!-- edges -->
<g id="node3" class="node">
<title>edges</title>
<ellipse fill="none" stroke="black" cx="623.03" cy="-99" rx="85.63" ry="18"/>
<text text-anchor="middle" x="623.03" y="-95.9" font-family="Verdana" font-size="12.00">Edges (list of Edge)</text>
</g>
<!-- Scene -->
<g id="node5" class="node">
<title>Scene</title>
<ellipse fill="none" stroke="black" cx="458.6" cy="-126" rx="32.75" ry="18"/>
<text text-anchor="middle" x="458.6" y="-122.9" font-family="Verdana" font-size="12.00">Scene</text>
</g>
<!-- NodeEditorWidget&#45;&gt;Scene -->
<g id="edge2" class="edge">
<title>NodeEditorWidget&#45;&gt;Scene</title>
<path fill="none" stroke="black" d="M336.5,-149.44C363.02,-144.31 393.54,-138.4 417.31,-133.8"/>
<polygon fill="black" stroke="black" points="418.23,-137.19 427.38,-131.85 416.9,-130.31 418.23,-137.19"/>
<text text-anchor="middle" x="386.59" y="-145.8" font-family="Sans" font-size="9.00"> holds </text>
</g>
<!-- grScene -->
<g id="node6" class="node">
<title>grScene</title>
<ellipse fill="none" stroke="black" cx="458.6" cy="-180" rx="40.03" ry="18"/>
<text text-anchor="middle" x="458.6" y="-176.9" font-family="Verdana" font-size="12.00">grScene</text>
</g>
<!-- NodeEditorWidget&#45;&gt;grScene -->
<g id="edge3" class="edge">
<title>NodeEditorWidget&#45;&gt;grScene</title>
<path fill="none" stroke="black" d="M347.74,-168.45C368.35,-170.62 390.39,-172.94 409.28,-174.92"/>
<polygon fill="black" stroke="black" points="409.1,-178.42 419.41,-175.99 409.83,-171.46 409.1,-178.42"/>
<text text-anchor="middle" x="386.59" y="-175.8" font-family="Sans" font-size="9.00"> holds </text>
</g>
<!-- Scene&#45;&gt;nodes -->
<g id="edge4" class="edge">
<title>Scene&#45;&gt;nodes</title>
<path fill="none" stroke="black" d="M490.15,-131.08C505.65,-133.65 525.24,-136.91 544.55,-140.12"/>
<polygon fill="black" stroke="black" points="544.16,-143.6 554.6,-141.79 545.31,-136.7 544.16,-143.6"/>
</g>
<!-- Scene&#45;&gt;edges -->
<g id="edge5" class="edge">
<title>Scene&#45;&gt;edges</title>
<path fill="none" stroke="black" d="M490.15,-120.92C505.88,-118.31 525.82,-114.99 545.4,-111.74"/>
<polygon fill="black" stroke="black" points="545.99,-115.19 555.28,-110.1 544.84,-108.28 545.99,-115.19"/>
</g>
<!-- Node -->
<g id="node7" class="node">
<title>Node</title>
<ellipse fill="none" stroke="black" cx="275.8" cy="-72" rx="29.6" ry="18"/>
<text text-anchor="middle" x="275.8" y="-68.9" font-family="Verdana" font-size="12.00">Node</text>
</g>
<!-- Node&#45;&gt;Scene -->
<g id="edge6" class="edge">
<title>Node&#45;&gt;Scene</title>
<path fill="none" stroke="black" d="M302.7,-79.74C333.36,-88.89 384.68,-104.22 419.78,-114.7"/>
<polygon fill="black" stroke="black" points="419.08,-118.15 429.67,-117.66 421.09,-111.44 419.08,-118.15"/>
</g>
<!-- grNode -->
<g id="node8" class="node">
<title>grNode</title>
<ellipse fill="none" stroke="black" cx="458.6" cy="-72" rx="36.87" ry="18"/>
<text text-anchor="middle" x="458.6" y="-68.9" font-family="Verdana" font-size="12.00">grNode</text>
</g>
<!-- Node&#45;&gt;grNode -->
<g id="edge7" class="edge">
<title>Node&#45;&gt;grNode</title>
<path fill="none" stroke="black" d="M305.44,-72C333.96,-72 378.18,-72 411.61,-72"/>
<polygon fill="black" stroke="black" points="411.61,-75.5 421.61,-72 411.61,-68.5 411.61,-75.5"/>
</g>
<!-- Content -->
<g id="node9" class="node">
<title>Content</title>
<ellipse fill="none" stroke="black" cx="458.6" cy="-18" rx="40.03" ry="18"/>
<text text-anchor="middle" x="458.6" y="-14.9" font-family="Verdana" font-size="12.00">Content</text>
</g>
<!-- Node&#45;&gt;Content -->
<g id="edge8" class="edge">
<title>Node&#45;&gt;Content</title>
<path fill="none" stroke="black" d="M302.7,-64.26C331.94,-55.53 379.96,-41.19 414.8,-30.78"/>
<polygon fill="black" stroke="black" points="416.11,-34.04 424.69,-27.83 414.11,-27.34 416.11,-34.04"/>
</g>
<!-- Edge -->
<g id="node10" class="node">
<title>Edge</title>
<ellipse fill="none" stroke="black" cx="66.5" cy="-72" rx="28.87" ry="18"/>
<text text-anchor="middle" x="66.5" y="-68.9" font-family="Verdana" font-size="12.00">Edge</text>
</g>
<!-- Edge&#45;&gt;Node -->
<g id="edge9" class="edge">
<title>Edge&#45;&gt;Node</title>
<path fill="none" stroke="black" d="M95.46,-72C131.65,-72 194.91,-72 235.81,-72"/>
<polygon fill="black" stroke="black" points="235.95,-75.5 245.95,-72 235.95,-68.5 235.95,-75.5"/>
</g>
</g>
</svg>
