<?xml version="1.0" encoding="UTF-8" standalone="no"?>
<!DOCTYPE svg PUBLIC "-//W3C//DTD SVG 1.1//EN"
 "http://www.w3.org/Graphics/SVG/1.1/DTD/svg11.dtd">
<!-- Generated by graphviz version 2.44.1 (20200629.0846)
 -->
<!-- Title: sphinx&#45;ext&#45;graphviz Pages: 1 -->
<svg width="432pt" height="103pt"
 viewBox="0.00 0.00 432.00 102.77" xmlns="http://www.w3.org/2000/svg" xmlns:xlink="http://www.w3.org/1999/xlink">
<g id="graph0" class="graph" transform="scale(0.65 0.65) rotate(0) translate(4 155)">
<title>sphinx&#45;ext&#45;graphviz</title>
<polygon fill="white" stroke="transparent" points="-4,4 -4,-155 664.34,-155 664.34,4 -4,4"/>
<!-- sphinx -->
<g id="node1" class="node">
<title>sphinx</title>
<g id="a_node1"><a xlink:href="https://www.sphinx-doc.org/" xlink:title="Sphinx" target="_blank">
<polygon fill="none" stroke="black" points="110.37,-43 53.37,-43 53.37,-39 49.37,-39 49.37,-35 53.37,-35 53.37,-15 49.37,-15 49.37,-11 53.37,-11 53.37,-7 110.37,-7 110.37,-43"/>
<polyline fill="none" stroke="black" points="53.37,-39 57.37,-39 57.37,-35 53.37,-35 "/>
<polyline fill="none" stroke="black" points="53.37,-15 57.37,-15 57.37,-11 53.37,-11 "/>
<text text-anchor="middle" x="81.87" y="-21.9" font-family="Verdana" font-size="12.00">Sphinx</text>
</a>
</g>
</g>
<!-- dot -->
<g id="node2" class="node">
<title>dot</title>
<g id="a_node2"><a xlink:href="https://www.graphviz.org/" xlink:title="GraphViz" target="_blank">
<polygon fill="none" stroke="black" points="342.04,-70 271.04,-70 271.04,-66 267.04,-66 267.04,-62 271.04,-62 271.04,-42 267.04,-42 267.04,-38 271.04,-38 271.04,-34 342.04,-34 342.04,-70"/>
<polyline fill="none" stroke="black" points="271.04,-66 275.04,-66 275.04,-62 271.04,-62 "/>
<polyline fill="none" stroke="black" points="271.04,-42 275.04,-42 275.04,-38 271.04,-38 "/>
<text text-anchor="middle" x="306.54" y="-48.9" font-family="Verdana" font-size="12.00">GraphViz</text>
</a>
</g>
</g>
<!-- sphinx&#45;&gt;dot -->
<g id="edge2" class="edge">
<title>sphinx&#45;&gt;dot</title>
<path fill="none" stroke="black" stroke-dasharray="5,2" d="M110.62,-28.36C151.19,-33.28 226.66,-42.44 270.84,-47.79"/>
<text text-anchor="middle" x="195.75" y="-43.8" font-family="Sans" font-size="9.00"> call </text>
</g>
<!-- html_files -->
<g id="node5" class="node">
<title>html_files</title>
<polygon fill="yellow" stroke="black" points="660.34,-36 657.34,-40 636.34,-40 633.34,-36 577.34,-36 577.34,0 660.34,0 660.34,-36"/>
<text text-anchor="middle" x="618.84" y="-14.9" font-family="Verdana" font-size="12.00">HTML Files</text>
</g>
<!-- sphinx&#45;&gt;html_files -->
<g id="edge4" class="edge">
<title>sphinx&#45;&gt;html_files</title>
<path fill="none" stroke="black" d="M110.51,-24.64C195.8,-23.52 455.82,-20.12 566.78,-18.67"/>
<polygon fill="black" stroke="black" points="567.09,-22.16 577.05,-18.53 567,-15.16 567.09,-22.16"/>
<text text-anchor="middle" x="420.34" y="-23.8" font-family="Sans" font-size="9.00"> render </text>
</g>
<!-- svg_file -->
<g id="node4" class="node">
<title>svg_file</title>
<polygon fill="#3333ff" stroke="black" points="534.34,-70 455.34,-70 455.34,-34 540.34,-34 540.34,-64 534.34,-70"/>
<polyline fill="none" stroke="black" points="534.34,-70 534.34,-64 "/>
<polyline fill="none" stroke="black" points="540.34,-64 534.34,-64 "/>
<text text-anchor="middle" x="497.84" y="-48.9" font-family="Verdana" font-size="12.00" fill="white">SVG Image</text>
</g>
<!-- dot&#45;&gt;svg_file -->
<g id="edge3" class="edge">
<title>dot&#45;&gt;svg_file</title>
<path fill="none" stroke="black" d="M342.26,-52C370.96,-52 412.15,-52 444.8,-52"/>
<polygon fill="black" stroke="black" points="445.07,-55.5 455.07,-52 445.07,-48.5 445.07,-55.5"/>
<text text-anchor="middle" x="420.34" y="-54.8" font-family="Sans" font-size="9.00"> draw </text>
</g>
<!-- docs -->
<g id="node3" class="node">
<title>docs</title>
<polygon fill="green" stroke="black" points="122.87,-97 119.87,-101 98.87,-101 95.87,-97 40.87,-97 40.87,-61 122.87,-61 122.87,-97"/>
<text text-anchor="middle" x="81.87" y="-75.9" font-family="Verdana" font-size="12.00">Docs (.rst)</text>
</g>
<!-- svg_file&#45;&gt;html_files -->
<g id="edge5" class="edge">
<title>svg_file&#45;&gt;html_files</title>
<path fill="none" stroke="black" stroke-dasharray="5,2" d="M540.46,-40.11C549.22,-37.61 558.55,-34.94 567.59,-32.36"/>
<polygon fill="black" stroke="black" points="568.59,-35.71 577.24,-29.6 566.67,-28.98 568.59,-35.71"/>
</g>
<!-- NodeWindowEditor -->
<g id="node6" class="node">
<title>NodeWindowEditor</title>
<ellipse fill="none" stroke="black" cx="81.87" cy="-133" rx="81.75" ry="18"/>
<text text-anchor="middle" x="81.87" y="-129.9" font-family="Verdana" font-size="12.00">NodeWindowEditor</text>
</g>
<!-- NodeEditorWidget -->
<g id="node7" class="node">
<title>NodeEditorWidget</title>
<ellipse fill="none" stroke="black" cx="306.54" cy="-133" rx="78.59" ry="18"/>
<text text-anchor="middle" x="306.54" y="-129.9" font-family="Verdana" font-size="12.00">NodeEditorWidget</text>
</g>
<!-- NodeWindowEditor&#45;&gt;NodeEditorWidget -->
<g id="edge1" class="edge">
<title>NodeWindowEditor&#45;&gt;NodeEditorWidget</title>
<path fill="none" stroke="black" d="M163.89,-133C181.25,-133 199.67,-133 217.29,-133"/>
<polygon fill="black" stroke="black" points="217.56,-136.5 227.56,-133 217.56,-129.5 217.56,-136.5"/>
<text text-anchor="middle" x="195.75" y="-135.8" font-family="Sans" font-size="9.00"> holds </text>
</g>
</g>
</svg>
