<?xml version="1.0" encoding="UTF-8" standalone="no"?>
<!-- Created with Inkscape (http://www.inkscape.org/) -->

<svg
   xmlns:dc="http://purl.org/dc/elements/1.1/"
   xmlns:cc="http://creativecommons.org/ns#"
   xmlns:rdf="http://www.w3.org/1999/02/22-rdf-syntax-ns#"
   xmlns:svg="http://www.w3.org/2000/svg"
   xmlns="http://www.w3.org/2000/svg"
   xmlns:sodipodi="http://sodipodi.sourceforge.net/DTD/sodipodi-0.dtd"
   xmlns:inkscape="http://www.inkscape.org/namespaces/inkscape"
   width="36"
   height="36"
   viewBox="0 0 9.5249998 9.5250003"
   version="1.1"
   id="svg8"
   inkscape:version="0.92.3 (2405546, 2018-03-11)"
   sodipodi:docname="True_False_icon.svg">
  <defs
     id="defs2">
    <clipPath
       clipPathUnits="userSpaceOnUse"
       id="clipPath823">
      <path
         style="fill:none;stroke:#000000;stroke-width:0.26458332px;stroke-linecap:butt;stroke-linejoin:miter;stroke-opacity:1"
         d="M 0,287.47498 H 9.525 L 0,296.99998 Z"
         id="path825"
         inkscape:connector-curvature="0" />
    </clipPath>
    <clipPath
       clipPathUnits="userSpaceOnUse"
       id="clipPath829">
      <path
         style="fill:none;stroke:#000000;stroke-width:0.26458332px;stroke-linecap:butt;stroke-linejoin:miter;stroke-opacity:1"
         d="m 0,296.99998 h 9.525 v -9.525 z"
         id="path831"
         inkscape:connector-curvature="0" />
    </clipPath>
  </defs>
  <sodipodi:namedview
     id="base"
     pagecolor="#ffffff"
     bordercolor="#666666"
     borderopacity="1.0"
     inkscape:pageopacity="0.0"
     inkscape:pageshadow="2"
     inkscape:zoom="2.8"
     inkscape:cx="2.770737"
     inkscape:cy="34.335592"
     inkscape:document-units="mm"
     inkscape:current-layer="layer1"
     showgrid="true"
     units="px"
     inkscape:snap-grids="true"
     inkscape:window-width="958"
     inkscape:window-height="1008"
     inkscape:window-x="-7"
     inkscape:window-y="0"
     inkscape:window-maximized="0">
    <inkscape:grid
       type="xygrid"
       id="grid815" />
  </sodipodi:namedview>
  <metadata
     id="metadata5">
    <rdf:RDF>
      <cc:Work
         rdf:about="">
        <dc:format>image/svg+xml</dc:format>
        <dc:type
           rdf:resource="http://purl.org/dc/dcmitype/StillImage" />
        <dc:title></dc:title>
      </cc:Work>
    </rdf:RDF>
  </metadata>
  <g
     inkscape:label="Calque 1"
     inkscape:groupmode="layer"
     id="layer1"
     transform="translate(0,-287.47498)">
    <g
       id="g849">
      <circle
         transform="rotate(180,4.7624998,292.23748)"
         clip-path="url(#clipPath823)"
         r="4.7624998"
         cy="292.23749"
         cx="4.7624998"
         id="path817"
         style="opacity:1;fill:#d90000;fill-opacity:1;fill-rule:nonzero;stroke:none;stroke-width:0.52916664;stroke-linejoin:bevel;stroke-miterlimit:4;stroke-dasharray:none;stroke-opacity:1" />
      <circle
         transform="rotate(180,4.7624998,292.23748)"
         clip-path="url(#clipPath829)"
         r="4.7624998"
         cy="292.23749"
         cx="4.7624998"
         id="path819"
         style="opacity:1;fill:#1dd900;fill-opacity:1;fill-rule:nonzero;stroke:none;stroke-width:0.52916664;stroke-linejoin:bevel;stroke-miterlimit:4;stroke-dasharray:none;stroke-opacity:1" />
    </g>
    <path
       style="opacity:1;fill:#1dd900;fill-opacity:0;fill-rule:nonzero;stroke:#ffffff;stroke-width:0.15875;stroke-linejoin:bevel;stroke-miterlimit:4;stroke-dasharray:none;stroke-opacity:1"
       id="path833"
       d="m 3.6050777,281.80197 c 0.140156,0.15862 0.2962855,0.30248 0.4418727,0.45634 0.2940887,0.33575 0.5673765,0.68923 0.8436131,1.03967 0.092055,0.11631 0.1836048,0.23295 0.2768744,0.34828 0.036635,0.0453 0.06931,0.10025 0.1242288,0.12455 0.057578,-0.0937 0.074473,-0.21232 0.1056232,-0.31703 0.088901,-0.31404 0.1684311,-0.6306 0.2496789,-0.94669 0.094064,-0.3857 0.2328058,-0.75765 0.3788719,-1.12605 0.1135957,-0.29362 0.2372527,-0.58334 0.3801007,-0.86393 0.1189905,-0.23931 0.2788986,-0.45458 0.4485473,-0.6599 0.1435232,-0.18097 0.3046915,-0.34513 0.4647385,-0.51102 0.1281129,-0.11814 0.2474418,-0.24595 0.3759944,-0.3634 0.075329,-0.0717 0.1619004,-0.13002 0.2387065,-0.19985 0,0 0.033975,0.48146 0.033975,0.48146 v 0 c -0.079727,0.0634 -0.1623615,0.12299 -0.2376093,0.19188 -0.1267158,0.11534 -0.2486282,0.23606 -0.3742965,0.35258 -0.1619718,0.1611 -0.3190513,0.32614 -0.4613,0.50532 -0.1681221,0.2013 -0.3242135,0.41383 -0.4392686,0.65063 -0.1397664,0.27594 -0.2625503,0.56011 -0.3779714,0.84702 -0.1460539,0.3666 -0.2824387,0.73742 -0.3736768,1.12212 -0.08131,0.3269 -0.1623063,0.65388 -0.2464763,0.98006 -0.021344,0.0803 -0.054403,0.29741 -0.1412669,0.33663 -0.014422,0.007 -0.031255,0.005 -0.046883,0.007 -0.080047,-0.0425 -0.091109,-0.0812 -0.1437259,-0.1557 -0.089947,-0.12739 -0.1800678,-0.25474 -0.2739727,-0.37926 -0.2639272,-0.35461 -0.5371984,-0.70391 -0.8394781,-1.02686 -0.1436397,-0.14209 -0.2947553,-0.27726 -0.4526438,-0.40241 0,0 0.045743,-0.49188 0.045743,-0.49188 z"
       inkscape:connector-curvature="0" />
    <path
       style="opacity:1;fill:#ffffff;fill-opacity:1;fill-rule:nonzero;stroke:#ffffff;stroke-width:0.26458332;stroke-linejoin:bevel;stroke-miterlimit:4;stroke-dasharray:none;stroke-opacity:1"
       id="path841"
       d="m 1.2805221,290.33656 c 0.088197,0.18704 0.3217164,0.25997 0.4791074,0.39409 0.1850433,0.15769 0.3786948,0.30703 0.5468087,0.48266 0.1024347,0.10701 0.1900352,0.22746 0.2792569,0.34571 0.080852,0.10716 0.1638936,0.21352 0.2317853,0.32933 0.051559,0.0879 0.097703,0.17985 0.1322642,0.27576 0.026702,0.0741 0.121377,0.1836 0.057203,0.22926 -0.00631,0.004 -0.017082,-0.005 -0.019452,-0.0127 -0.015134,-0.0471 0.034497,-0.0927 0.053697,-0.1383 0.022677,-0.0538 0.050027,-0.1056 0.072585,-0.15948 0.091851,-0.21937 0.1647802,-0.44631 0.2552978,-0.66623 0.1032808,-0.25093 0.2017816,-0.50487 0.3282032,-0.74498 0.123861,-0.23525 0.2680691,-0.45985 0.4198077,-0.67816 0.1347056,-0.1938 0.2842849,-0.37701 0.4344107,-0.55913 0.1230849,-0.14931 0.2526299,-0.29322 0.3820374,-0.43709 0.1077369,-0.11978 0.2051236,-0.25085 0.3282945,-0.35469 0.1166608,-0.0983 0.2515935,-0.17327 0.3836836,-0.24966 0.020256,-0.0117 0.041758,-0.0211 0.06253,-0.0319 0.0363,-0.0188 0.071463,-0.0399 0.1085217,-0.0572 0.041628,-0.0194 0.09211,-0.0813 0.1275694,-0.0521 0.2149254,0.17696 -0.1615077,0.81945 -0.1615077,0.81945 v 0 c 0,0 -0.1989677,0.0872 -0.2922077,0.14242 -0.1261409,0.0747 -0.2492128,0.15685 -0.3590449,0.25394 -0.120049,0.10612 -0.2172767,0.23557 -0.3236306,0.35541 -0.128017,0.14425 -0.2568323,0.28797 -0.3784886,0.43762 -0.1481722,0.18227 -0.2956002,0.36583 -0.4276368,0.56011 -0.1486145,0.21867 -0.2885256,0.44424 -0.4090022,0.67959 -0.1232661,0.2408 -0.2166479,0.4958 -0.3193827,0.74605 -0.090521,0.2205 -0.1452103,0.4575 -0.2616544,0.66547 -0.057603,0.10288 -0.103461,0.23878 -0.2130002,0.28241 -0.01869,0.007 -0.041324,-10e-4 -0.059521,-0.01 -0.011638,-0.005 -0.022438,-0.0143 -0.029154,-0.0253 -0.03812,-0.0623 -0.029192,-0.14351 -0.052558,-0.2127 -0.031418,-0.093 -0.069599,-0.18439 -0.1171849,-0.27029 -0.064108,-0.11572 -0.1467158,-0.2203 -0.2249768,-0.32696 -0.085489,-0.11651 -0.1680661,-0.23622 -0.2669425,-0.34161 -0.1648719,-0.17574 -0.3571041,-0.32373 -0.5400954,-0.48051 -0.1564948,-0.13408 -0.418186,-0.19587 -0.4769135,-0.3934 -0.079339,-0.26686 -0.025897,-0.83934 0.2492907,-0.79714 8.24e-5,10e-6 -3.58e-5,1.7e-4 -3e-7,2.5e-4 z"
       inkscape:connector-curvature="0"
       sodipodi:nodetypes="sssssssssssssssssssssssssssssssssssssssss" />
    <path
       style="opacity:1;fill:#ffffff;fill-opacity:1;fill-rule:nonzero;stroke:#ffffff;stroke-width:0.26458332;stroke-linejoin:bevel;stroke-miterlimit:4;stroke-dasharray:none;stroke-opacity:1"
       id="path843"
       d="m 5.1776148,292.21426 c 0.1144937,0.0824 0.2268132,0.16785 0.3379189,0.25476 0.2347442,0.17614 0.4524807,0.37293 0.666723,0.57306 0.2202511,0.20873 0.4332105,0.42529 0.6371937,0.64995 0.1390047,0.14205 0.2565731,0.30203 0.3643312,0.46841 0.05534,0.0892 0.1084771,0.17954 0.1519897,0.27508 0.028089,0.0599 0.05018,0.12228 0.075659,0.18328 0.018875,0.0479 0.038081,0.0956 0.05306,0.14481 0,0 -0.2087158,0.55248 -0.2087158,0.55248 v 0 c -0.016571,-0.0477 -0.028821,-0.0967 -0.048959,-0.14328 -0.024503,-0.0609 -0.049005,-0.12159 -0.073477,-0.18248 -0.04287,-0.0936 -0.088296,-0.18534 -0.1441146,-0.27227 -0.1046964,-0.16507 -0.2172412,-0.3257 -0.3551147,-0.46528 -0.2019295,-0.22455 -0.4139536,-0.44003 -0.6325032,-0.64842 -0.2126363,-0.19951 -0.428317,-0.39636 -0.6618464,-0.57152 -0.1104233,-0.0871 -0.2222836,-0.17255 -0.3366588,-0.25437 0,0 0.1745134,-0.56421 0.174514,-0.56421 z"
       inkscape:connector-curvature="0" />
    <path
       style="opacity:1;fill:#ffffff;fill-opacity:1;fill-rule:nonzero;stroke:#ffffff;stroke-width:0.26458332;stroke-linejoin:bevel;stroke-miterlimit:4;stroke-dasharray:none;stroke-opacity:1"
       id="path845"
       d="m 4.7174573,295.29877 c 0.040477,-0.0998 0.088393,-0.19539 0.1403085,-0.28973 0.1209262,-0.23118 0.2482411,-0.45869 0.3817866,-0.68282 0.165236,-0.27787 0.3576307,-0.53738 0.5631442,-0.78641 0.1791848,-0.22757 0.3889478,-0.42751 0.6034466,-0.62111 0.2243397,-0.20648 0.4771392,-0.37667 0.7360525,-0.53601 0.2874809,-0.17693 0.5799104,-0.34563 0.88064,-0.499 0.2304695,-0.11428 0.4685464,-0.21215 0.7052881,-0.31244 0.082398,-0.0378 0.043095,-0.02 0.1178656,-0.0535 0,0 -0.1134954,0.57958 -0.1134954,0.57958 v 0 c -0.075016,0.0338 -0.035299,0.016 -0.1191758,0.0533 -0.2358178,0.0994 -0.4721362,0.19842 -0.7009603,0.31328 -0.2987424,0.15452 -0.5899066,0.32297 -0.8759574,0.49988 -0.2557203,0.15983 -0.5042937,0.33154 -0.725365,0.53785 -0.2115862,0.19449 -0.4179694,0.39506 -0.5948875,0.62244 -0.2023465,0.24984 -0.3915461,0.50996 -0.5543323,0.78765 -0.1321792,0.22455 -0.2579026,0.45259 -0.3793201,0.68314 -0.049484,0.0946 -0.094646,0.19115 -0.1337392,0.29054 0,0 0.068701,-0.58658 0.068701,-0.58658 z"
       inkscape:connector-curvature="0" />
  </g>
</svg>
