<?xml version="1.0" encoding="UTF-8" standalone="no"?>
<svg
   xmlns:dc="http://purl.org/dc/elements/1.1/"
   xmlns:cc="http://creativecommons.org/ns#"
   xmlns:rdf="http://www.w3.org/1999/02/22-rdf-syntax-ns#"
   xmlns:svg="http://www.w3.org/2000/svg"
   xmlns="http://www.w3.org/2000/svg"
   xmlns:xlink="http://www.w3.org/1999/xlink"
   xmlns:sodipodi="http://sodipodi.sourceforge.net/DTD/sodipodi-0.dtd"
   xmlns:inkscape="http://www.inkscape.org/namespaces/inkscape"
   version="1.1"
   id="Layer_1"
   x="0px"
   y="0px"
   viewBox="0 0 63.999944 49.582001"
   xml:space="preserve"
   sodipodi:docname="computer-folder-open-64.svg"
   inkscape:version="0.92.3 (2405546, 2018-03-11)"
   width="63.999943"
   height="49.582001"><metadata
     id="metadata3733"><rdf:RDF><cc:Work
         rdf:about=""><dc:format>image/svg+xml</dc:format><dc:type
           rdf:resource="http://purl.org/dc/dcmitype/StillImage" /><dc:title /></cc:Work></rdf:RDF></metadata><defs
     id="defs3731"><linearGradient
       inkscape:collect="always"
       id="linearGradient9071"><stop
         style="stop-color:#000000;stop-opacity:1;"
         offset="0"
         id="stop9067" /><stop
         style="stop-color:#000000;stop-opacity:0;"
         offset="1"
         id="stop9069" /></linearGradient><linearGradient
       inkscape:collect="always"
       xlink:href="#linearGradient9071"
       id="linearGradient9073"
       x1="-0.0031954065"
       y1="47.6"
       x2="122.88"
       y2="-0.15722562"
       gradientUnits="userSpaceOnUse" /></defs><sodipodi:namedview
     pagecolor="#ffffff"
     bordercolor="#666666"
     borderopacity="1"
     objecttolerance="10"
     gridtolerance="10"
     guidetolerance="10"
     inkscape:pageopacity="0"
     inkscape:pageshadow="2"
     inkscape:window-width="971"
     inkscape:window-height="1008"
     id="namedview3729"
     showgrid="true"
     inkscape:zoom="3.0153317"
     inkscape:cx="33.020053"
     inkscape:cy="35.617061"
     inkscape:window-x="940"
     inkscape:window-y="0"
     inkscape:window-maximized="0"
     inkscape:current-layer="Layer_1"
     fit-margin-top="0"
     fit-margin-left="0"
     fit-margin-right="0"
     fit-margin-bottom="0" /><g
     id="g3726"
     transform="matrix(0.52081933,0,0,0.52081933,0.00166423,0)"
     style="fill-opacity:1;fill:url(#linearGradient9073)"><path
       d="m 2.48,20.74 h 4.5 V 10.88 C 6.98,9.51 8.09,8.4 9.46,8.4 h 4.41 V 2.48 C 13.87,1.11 14.98,0 16.35,0 h 40.26 c 1.37,0 2.48,1.11 2.48,2.48 V 8.4 h 54.3 c 1.37,0 2.48,1.11 2.48,2.48 v 9.86 h 4.53 c 1.37,0 2.48,1.11 2.48,2.48 0,0.18 -0.02,0.36 -0.06,0.52 l -8.68,63.81 c -0.28,2.08 -1.19,4.01 -2.59,5.41 -1.38,1.38 -3.21,2.24 -5.36,2.24 H 14.7 C 12.54,95.2 10.67,94.33 9.27,92.94 7.86,91.53 6.96,89.59 6.73,87.48 l -6.72,-64 C -0.13,22.12 0.86,20.9 2.22,20.76 2.31,20.75 2.39,20.75 2.48,20.74 Z m 6.98,4.97 H 5.23 l 6.43,61.27 c 0.1,0.98 0.5,1.85 1.1,2.46 0.5,0.5 1.17,0.81 1.93,0.81 h 91.5 c 0.75,0 1.38,-0.3 1.87,-0.79 0.62,-0.62 1.03,-1.53 1.17,-2.55 l 8.32,-61.19 H 9.46 Z m 2.48,-12.34 v 7.36 l 98.97,-1.05 v -6.31 h -54.3 c -1.37,0 -2.48,-1.11 -2.48,-2.48 V 4.97 h -35.3 v 5.92 c 0,1.37 -1.11,2.48 -2.48,2.48 z"
       id="path3724"
       inkscape:connector-curvature="0"
       style="fill-opacity:1;fill:url(#linearGradient9073)" /></g></svg>